<?xml version="1.0" encoding="UTF-8"?> <svg xmlns="http://www.w3.org/2000/svg" width="36" height="36" viewBox="0 0 36 36" fill="none"> <g clip-path="url(#clip0_118_2154)"> <path d="M5.6745 4.239L18 1.5L30.3255 4.239C30.6586 4.31305 30.9565 4.49845 31.17 4.76461C31.3835 5.03077 31.4999 5.36177 31.5 5.703V20.6835C31.4999 22.1651 31.134 23.6238 30.4348 24.93C29.7357 26.2363 28.7248 27.3497 27.492 28.1715L18 34.5L8.508 28.1715C7.27541 27.3498 6.26469 26.2366 5.56552 24.9307C4.86635 23.6247 4.50035 22.1663 4.5 20.685V5.703C4.50006 5.36177 4.61646 5.03077 4.82998 4.76461C5.04351 4.49845 5.34141 4.31305 5.6745 4.239ZM7.5 6.906V20.6835C7.50002 21.6712 7.74386 22.6436 8.20989 23.5144C8.67592 24.3853 9.34973 25.1276 10.1715 25.6755L18 30.8955L25.8285 25.6755C26.6501 25.1277 27.3237 24.3856 27.7898 23.5151C28.2558 22.6445 28.4997 21.6724 28.5 20.685V6.906L18 4.575L7.5 6.906ZM18 16.5C17.0054 16.5 16.0516 16.1049 15.3483 15.4017C14.6451 14.6984 14.25 13.7446 14.25 12.75C14.25 11.7554 14.6451 10.8016 15.3483 10.0983C16.0516 9.39509 17.0054 9 18 9C18.9946 9 19.9484 9.39509 20.6516 10.0983C21.3549 10.8016 21.75 11.7554 21.75 12.75C21.75 13.7446 21.3549 14.6984 20.6516 15.4017C19.9484 16.1049 18.9946 16.5 18 16.5ZM11.2905 24C11.4723 22.3476 12.2575 20.8204 13.4956 19.7111C14.7337 18.6018 16.3376 17.9883 18 17.9883C19.6624 17.9883 21.2663 18.6018 22.5044 19.7111C23.7425 20.8204 24.5277 22.3476 24.7095 24H11.2905Z" fill="#333333"></path> </g> <defs> <clipPath id="clip0_118_2154"> <rect width="36" height="36" fill="white"></rect> </clipPath> </defs> </svg> 