<?xml version="1.0" encoding="UTF-8"?> <svg xmlns="http://www.w3.org/2000/svg" width="36" height="36" viewBox="0 0 36 36" fill="none"> <g clip-path="url(#clip0_118_2062)"> <path d="M18 4.6502L10.575 12.0752C9.10666 13.5437 8.10674 15.4146 7.70168 17.4514C7.29662 19.4882 7.50462 21.5993 8.29937 23.5179C9.09413 25.4364 10.4399 27.0762 12.1666 28.23C13.8933 29.3837 15.9233 29.9994 18 29.9994C20.0767 29.9994 22.1067 29.3837 23.8334 28.23C25.5601 27.0762 26.9059 25.4364 27.7006 23.5179C28.4954 21.5993 28.7034 19.4882 28.2983 17.4514C27.8933 15.4146 26.8934 13.5437 25.425 12.0752L18 4.6502ZM18 0.408203L27.546 9.9542C29.434 11.8422 30.7197 14.2477 31.2406 16.8664C31.7615 19.4852 31.4942 22.1996 30.4724 24.6664C29.4506 27.1331 27.7202 29.2415 25.5002 30.7249C23.2801 32.2083 20.67 33.0001 18 33.0001C15.33 33.0001 12.7199 32.2083 10.4998 30.7249C8.27977 29.2415 6.54944 27.1331 5.52765 24.6664C4.50586 22.1996 4.23851 19.4852 4.75939 16.8664C5.28028 14.2477 6.56601 11.8422 8.45401 9.9542L18 0.408203ZM18 27.0002V12.0002C19.9891 12.0002 21.8968 12.7904 23.3033 14.1969C24.7098 15.6034 25.5 17.5111 25.5 19.5002C25.5 21.4893 24.7098 23.397 23.3033 24.8035C21.8968 26.21 19.9891 27.0002 18 27.0002Z" fill="#333333"></path> </g> <defs> <clipPath id="clip0_118_2062"> <rect width="36" height="36" fill="white"></rect> </clipPath> </defs> </svg> 