<?xml version="1.0" encoding="UTF-8"?> <svg xmlns="http://www.w3.org/2000/svg" viewBox="0 0 146.00 146.00" data-guides="{&quot;vertical&quot;:[],&quot;horizontal&quot;:[]}"><defs></defs><path fill="#45c1f0" stroke="none" fill-opacity="1" stroke-width="1" stroke-opacity="1" id="tSvgbc9f5b9122" title="Path 1" d="M72.0566 0.1697C72.5048 -0.086 73.0549 -0.086 73.5032 0.1697C74.896 0.964 76.2888 1.7585 77.6815 2.5528C78.0596 2.7684 78.5139 2.8042 78.921 2.6504C80.4209 2.0836 81.9207 1.5169 83.4206 0.9502C83.9035 0.7678 84.4467 0.8538 84.8496 1.1765C86.1009 2.179 87.3523 3.1815 88.6036 4.1839C88.9431 4.456 89.3864 4.5624 89.8124 4.4742C91.3825 4.1491 92.9526 3.8239 94.5227 3.4988C95.0282 3.3942 95.5512 3.5642 95.8985 3.9459C96.9777 5.1318 98.0569 6.3176 99.136 7.5035C99.4289 7.8253 99.8499 7.9998 100.2846 7.9793C101.8862 7.9038 103.4878 7.8284 105.0895 7.7528C105.605 7.7285 106.0951 7.9783 106.3785 8.4096C107.2588 9.7498 108.1392 11.0898 109.0194 12.4299C109.2584 12.7936 109.6469 13.0318 110.0794 13.0795C111.6732 13.2555 113.2669 13.4315 114.8607 13.6075C115.3735 13.6642 115.8186 13.9874 116.031 14.4579C116.6909 15.9192 117.3507 17.3806 118.0106 18.8418C118.1896 19.2383 118.5362 19.5343 118.9559 19.6492C120.5025 20.0723 122.049 20.4955 123.5956 20.9186C124.0934 21.0548 124.4824 21.4437 124.6186 21.9416C125.0417 23.4881 125.4648 25.0346 125.8879 26.5811C126.0028 27.0009 126.2988 27.3475 126.6952 27.5265C128.1566 28.1864 129.6179 28.8463 131.0792 29.5061C131.5497 29.7186 131.873 30.1635 131.9297 30.6765C132.1056 32.2702 132.2816 33.864 132.4577 35.4577C132.5053 35.8901 132.7435 36.2788 133.1072 36.5176C134.4472 37.398 135.7874 38.2783 137.1274 39.1587C137.5589 39.442 137.8085 39.9322 137.7843 40.4476C137.7089 42.0493 137.6333 43.651 137.5579 45.2526C137.5372 45.6872 137.7117 46.1083 138.0335 46.4011C139.2194 47.4803 140.4054 48.5594 141.5912 49.6385C141.9729 49.9858 142.143 50.509 142.0383 51.0145C141.7132 52.5845 141.3882 54.1546 141.063 55.7247C140.9747 56.1507 141.0811 56.594 141.3531 56.9334C142.3556 58.1848 143.3581 59.4362 144.3606 60.6875C144.6833 61.0903 144.7694 61.6336 144.5869 62.1164C144.0201 63.6163 143.4534 65.1162 142.8867 66.6162C142.733 67.0232 142.7687 67.4776 142.9844 67.8555C143.7787 69.2483 144.5731 70.6412 145.3674 72.034C145.6232 72.4822 145.6232 73.0323 145.3674 73.4805C144.5731 74.8733 143.7787 76.2661 142.9844 77.6589C142.7687 78.0369 142.733 78.4913 142.8867 78.8983C143.4534 80.3983 144.0201 81.8981 144.5869 83.398C144.7694 83.8808 144.6833 84.4241 144.3606 84.827C143.3581 86.0783 142.3556 87.3297 141.3531 88.581C141.0811 88.9205 140.9747 89.3638 141.063 89.7897C141.3882 91.3599 141.7132 92.93 142.0383 94.5C142.143 95.0055 141.9729 95.5285 141.5912 95.8759C140.4054 96.9551 139.2194 98.0342 138.0335 99.1133C137.7117 99.4062 137.5372 99.8273 137.5579 100.2619C137.6333 101.8635 137.7089 103.4651 137.7843 105.0668C137.8085 105.5823 137.5589 106.0724 137.1274 106.3558C135.7874 107.2361 134.4472 108.1165 133.1072 108.9968C132.7435 109.2357 132.5053 109.6243 132.4577 110.0568C132.2816 111.6505 132.1056 113.2443 131.9297 114.838C131.873 115.3509 131.5497 115.7959 131.0792 116.0084C129.6179 116.6682 128.1566 117.3281 126.6952 117.9879C126.2988 118.1669 126.0028 118.5135 125.8879 118.9333C125.4648 120.4798 125.0417 122.0263 124.6186 123.5729C124.4824 124.0707 124.0934 124.4597 123.5956 124.5959C122.049 125.019 120.5025 125.4421 118.9559 125.8652C118.5362 125.9802 118.1896 126.2761 118.0106 126.6726C117.3507 128.1339 116.6909 129.5952 116.031 131.0566C115.8186 131.527 115.3735 131.8504 114.8607 131.9071C113.2669 132.083 111.6732 132.259 110.0794 132.435C109.6469 132.4827 109.2584 132.7209 109.0194 133.0845C108.1392 134.4246 107.2588 135.7647 106.3785 137.1048C106.0951 137.5362 105.605 137.7858 105.0895 137.7617C103.4878 137.6862 101.8862 137.6106 100.2846 137.5352C99.8499 137.5146 99.4289 137.6891 99.136 138.0109C98.0569 139.1967 96.9777 140.3827 95.8985 141.5686C95.5512 141.9502 95.0282 142.1203 94.5227 142.0157C92.9526 141.6906 91.3825 141.3655 89.8124 141.0403C89.3864 140.952 88.9431 141.0585 88.6036 141.3305C87.3523 142.333 86.1009 143.3355 84.8496 144.338C84.4467 144.6606 83.9035 144.7468 83.4206 144.5642C81.9207 143.9975 80.4209 143.4307 78.921 142.8641C78.5139 142.7103 78.0596 142.7461 77.6815 142.9617C76.2888 143.756 74.896 144.5504 73.5032 145.3448C73.0549 145.6005 72.5048 145.6005 72.0566 145.3448C70.6638 144.5504 69.271 143.756 67.8782 142.9617C67.5002 142.7461 67.0459 142.7103 66.6388 142.8641C65.1389 143.4307 63.639 143.9975 62.1391 144.5642C61.6562 144.7468 61.113 144.6606 60.7102 144.338C59.4589 143.3355 58.2075 142.333 56.9561 141.3305C56.6167 141.0585 56.1734 140.952 55.7473 141.0403C54.1773 141.3655 52.6072 141.6906 51.0371 142.0157C50.5316 142.1203 50.0085 141.9502 49.6612 141.5686C48.5821 140.3827 47.5029 139.1967 46.4237 138.0109C46.1309 137.6891 45.7099 137.5146 45.2752 137.5352C43.6736 137.6106 42.0719 137.6862 40.4703 137.7617C39.9548 137.7858 39.4646 137.5362 39.1813 137.1048C38.3009 135.7647 37.4206 134.4246 36.5402 133.0845C36.3014 132.7209 35.9128 132.4827 35.4804 132.435C33.8866 132.259 32.2929 132.083 30.6991 131.9071C30.1862 131.8504 29.7412 131.527 29.5288 131.0566C28.8689 129.5952 28.2091 128.1339 27.5492 126.6726C27.3701 126.2761 27.0236 125.9802 26.6038 125.8652C25.0573 125.4421 23.5107 125.019 21.9642 124.5959C21.4663 124.4597 21.0774 124.0707 20.9412 123.5729C20.5181 122.0263 20.0949 120.4798 19.6718 118.9333C19.557 118.5135 19.261 118.1669 18.8644 117.9879C17.4032 117.3281 15.9419 116.6682 14.4806 116.0084C14.0101 115.7959 13.6869 115.3509 13.6302 114.838C13.4542 113.2443 13.2782 111.6505 13.1021 110.0568C13.0545 109.6243 12.8163 109.2357 12.4526 108.9968C11.1125 108.1165 9.7724 107.2361 8.4323 106.3558C8.0009 106.0724 7.7512 105.5823 7.7755 105.0668C7.851 103.4651 7.9265 101.8635 8.0019 100.2619C8.0225 99.8273 7.848 99.4062 7.5262 99.1133C6.3403 98.0342 5.1544 96.9551 3.9686 95.8759C3.5868 95.5285 3.4168 95.0055 3.5215 94.5C3.8466 92.93 4.1717 91.3599 4.4968 89.7897C4.585 89.3638 4.4786 88.9205 4.2066 88.581C3.2042 87.3297 2.2017 86.0783 1.1992 84.827C0.8764 84.4241 0.7905 83.8808 0.9728 83.398C1.5396 81.8981 2.1063 80.3983 2.673 78.8983C2.8268 78.4913 2.7911 78.0369 2.5754 77.6589C1.7811 76.2661 0.9867 74.8733 0.1924 73.4805C-0.0634 73.0323 -0.0634 72.4822 0.1924 72.034C0.9867 70.6412 1.7811 69.2483 2.5754 67.8555C2.7911 67.4776 2.8268 67.0232 2.673 66.6162C2.1063 65.1162 1.5396 63.6163 0.9728 62.1164C0.7905 61.6336 0.8764 61.0903 1.1992 60.6875C2.2017 59.4362 3.2042 58.1848 4.2066 56.9334C4.4786 56.594 4.585 56.1507 4.4968 55.7247C4.1717 54.1546 3.8466 52.5845 3.5215 51.0145C3.4168 50.509 3.5868 49.9858 3.9686 49.6385C5.1544 48.5594 6.3403 47.4803 7.5262 46.4011C7.848 46.1083 8.0225 45.6872 8.0019 45.2526C7.9265 43.651 7.851 42.0493 7.7755 40.4476C7.7512 39.9322 8.0009 39.442 8.4323 39.1587C9.7724 38.2783 11.1125 37.398 12.4526 36.5176C12.8163 36.2788 13.0545 35.8901 13.1021 35.4577C13.2782 33.864 13.4542 32.2702 13.6302 30.6765C13.6869 30.1635 14.0101 29.7186 14.4806 29.5061C15.9419 28.8463 17.4032 28.1864 18.8644 27.5265C19.261 27.3475 19.557 27.0009 19.6718 26.5811C20.0949 25.0346 20.5181 23.4881 20.9412 21.9416C21.0774 21.4437 21.4663 21.0548 21.9642 20.9186C23.5107 20.4955 25.0573 20.0723 26.6038 19.6492C27.0236 19.5343 27.3701 19.2383 27.5492 18.8418C28.2091 17.3806 28.8689 15.9192 29.5288 14.4579C29.7412 13.9874 30.1862 13.6642 30.6991 13.6075C32.2929 13.4315 33.8866 13.2555 35.4804 13.0795C35.9128 13.0318 36.3014 12.7936 36.5402 12.4299C37.4206 11.0898 38.3009 9.7498 39.1813 8.4096C39.4646 7.9783 39.9548 7.7285 40.4703 7.7528C42.0719 7.8284 43.6736 7.9038 45.2752 7.9793C45.7099 7.9998 46.1309 7.8253 46.4237 7.5035C47.5029 6.3176 48.5821 5.1318 49.6612 3.9459C50.0085 3.5642 50.5316 3.3942 51.0371 3.4988C52.6072 3.8239 54.1773 4.1491 55.7473 4.4742C56.1734 4.5624 56.6167 4.456 56.9561 4.1839C58.2075 3.1815 59.4589 2.179 60.7102 1.1765C61.113 0.8538 61.6562 0.7678 62.1391 0.9502C63.639 1.5169 65.1389 2.0836 66.6388 2.6504C67.0459 2.8042 67.5002 2.7684 67.8782 2.5528C69.271 1.7585 70.6638 0.964 72.0566 0.1697Z" style=""></path><path fill="white" stroke="none" fill-opacity="1" stroke-width="1" stroke-opacity="1" id="tSvg17694e8af9" title="Path 2" d="M32.1042 66.6277C33.3442 66.4974 34.5841 66.367 35.8241 66.2366C36.0165 68.0661 36.2088 69.8957 36.4012 71.7252C38.0003 71.5571 39.5994 71.3891 41.1985 71.221C41.0062 69.3915 40.8139 67.562 40.6216 65.7324C41.8616 65.6022 43.1017 65.4718 44.3416 65.3415C44.8545 70.2203 45.3673 75.099 45.88 79.9778C44.6401 80.108 43.4 80.2384 42.16 80.3687C41.9542 78.4105 41.7483 76.4521 41.5425 74.4938C39.9434 74.6619 38.3443 74.83 36.7451 74.9981C36.951 76.9564 37.1567 78.9146 37.3625 80.8729C36.1225 81.0031 34.8825 81.1335 33.6425 81.2638C33.1297 76.3851 32.6169 71.5065 32.1042 66.6277ZM47.0326 65.0587C48.2793 64.9276 49.5262 64.7965 50.773 64.6655C51.0636 67.4301 51.3541 70.1947 51.6447 72.9593C53.3056 69.9896 54.9665 67.0199 56.6274 64.0501C57.6234 63.9454 58.6195 63.8408 59.6156 63.736C60.1284 68.6148 60.6413 73.4935 61.154 78.3723C59.9411 78.4998 58.7281 78.6273 57.5152 78.7548C57.2211 75.9563 56.9269 73.1577 56.6328 70.3592C54.9754 73.3628 53.3182 76.3665 51.6608 79.3701C50.6308 79.4783 49.6008 79.5865 48.5708 79.6947C48.0581 74.8161 47.5454 69.9373 47.0326 65.0587ZM66.1226 67.3683C64.8961 67.4972 63.6697 67.6261 62.4432 67.755C62.2979 66.3727 62.675 65.2027 63.5745 64.2449C64.4256 63.3469 65.5559 62.824 66.9653 62.6758C68.334 62.532 69.497 62.7113 70.4541 63.2135C71.5431 63.7978 72.1568 64.7473 72.2948 66.0618C72.4631 67.661 71.8153 68.7977 70.3515 69.4723C72.2587 69.8883 73.3041 70.9705 73.4878 72.7189C73.6274 74.0469 73.169 75.2255 72.1125 76.2546C71.1287 77.1938 69.9526 77.7353 68.5839 77.8791C67.066 78.0387 65.7778 77.7767 64.7195 77.0932C63.5877 76.3628 62.9035 75.2631 62.6669 73.7945C63.9273 73.662 65.1876 73.5296 66.448 73.397C66.7195 74.2865 67.35 74.6792 68.3392 74.5752C68.8136 74.5255 69.1706 74.3372 69.4103 74.0105C69.6486 73.6704 69.7422 73.2563 69.6908 72.7685C69.6125 72.0232 69.1567 71.5983 68.3238 71.494C68.0742 71.4654 67.3869 71.5103 66.2622 71.6285C66.166 70.7138 66.0698 69.799 65.9736 68.8842C66.2379 68.8564 66.5022 68.8287 66.7664 68.801C67.2814 68.7468 67.7164 68.5846 68.0718 68.3143C68.4905 67.9964 68.6749 67.6001 68.625 67.1258C68.5895 66.787 68.4158 66.5038 68.1042 66.2762C67.8061 66.0472 67.4808 65.9511 67.1285 65.9883C66.3966 66.0652 66.0613 66.5251 66.1226 67.3683ZM79.7471 76.4181C78.5003 76.5491 77.2536 76.6802 76.0068 76.8113C75.494 71.9325 74.9812 67.0538 74.4685 62.175C75.7153 62.044 76.9621 61.913 78.2089 61.7819C78.4417 63.9976 78.6746 66.2133 78.9075 68.4291C80.0636 66.0673 81.2198 63.7056 82.3761 61.3439C83.6838 61.2064 84.9916 61.069 86.2994 60.9316C84.9356 63.5344 83.5717 66.1372 82.208 68.7399C84.1862 71.0052 86.1644 73.2704 88.1425 75.5357C86.6857 75.6887 85.2289 75.8419 83.772 75.995C82.2068 74.0084 80.6415 72.0217 79.0763 70.0351C79.2998 72.1628 79.5235 74.2904 79.7471 76.4181ZM88.0263 60.7501C89.273 60.619 90.5198 60.488 91.7666 60.3569C92.0572 63.1215 92.3477 65.8861 92.6382 68.6507C94.2992 65.681 95.9601 62.7114 97.6211 59.7416C98.6172 59.6369 99.6132 59.5321 100.6092 59.4275C101.1221 64.3062 101.6348 69.185 102.1475 74.0636C100.9346 74.1912 99.7218 74.3187 98.5089 74.4462C98.2147 71.6477 97.9207 68.8492 97.6265 66.0506C95.9692 69.0542 94.3118 72.0578 92.6545 75.0614C91.6245 75.1698 90.5944 75.278 89.5645 75.3863C89.0517 70.5076 88.539 65.6288 88.0263 60.7501ZM112.9219 72.9313C110.2115 73.2161 107.5011 73.501 104.7907 73.7858C104.2779 68.9072 103.7651 64.0284 103.2523 59.1498C105.9627 58.8648 108.6732 58.58 111.3836 58.2951C111.4983 59.386 111.6129 60.4769 111.7276 61.5678C110.264 61.7216 108.8003 61.8755 107.3366 62.0294C107.4158 62.7815 107.4948 63.5336 107.5739 64.2857C108.9901 64.137 110.4063 63.9881 111.8225 63.8392C111.9386 64.9437 112.0547 66.0482 112.1707 67.1527C110.7545 67.3016 109.3383 67.4504 107.9221 67.5992C108.0097 68.4327 108.0973 69.2662 108.1849 70.0997C109.6486 69.9458 111.1121 69.792 112.5757 69.6381C112.6911 70.7359 112.8065 71.8336 112.9219 72.9313ZM54.9128 89.1871C56.1596 89.0561 57.4064 88.9251 58.6532 88.7941C59.0513 92.5818 59.4495 96.3697 59.8476 100.1574C60.3286 100.1069 60.8097 100.0563 61.2908 100.0057C61.5052 102.0453 61.7196 104.0849 61.9339 106.1244C60.8227 106.2412 59.7114 106.358 58.6002 106.4748C58.5005 105.5262 58.4007 104.5775 58.3011 103.6288C54.9604 103.9801 51.6199 104.3312 48.2792 104.6823C47.7665 99.8035 47.2538 94.9248 46.741 90.046C47.9877 89.9149 49.2345 89.784 50.4813 89.6529C50.8794 93.4407 51.2775 97.2285 51.6757 101.0164C53.1529 100.8611 54.63 100.7058 56.1072 100.5505C55.7091 96.7627 55.3109 92.9749 54.9128 89.1871ZM71.1579 102.2777C68.4475 102.5625 65.7371 102.8474 63.0266 103.1321C62.5138 98.2535 62.0011 93.3748 61.4884 88.4961C64.1988 88.2112 66.9091 87.9263 69.6195 87.6414C69.7342 88.7323 69.8489 89.8233 69.9635 90.9142C68.4999 91.068 67.0364 91.2218 65.5727 91.3757C65.6517 92.1278 65.7307 92.88 65.8099 93.6321C67.2261 93.4833 68.6423 93.3344 70.0585 93.1857C70.1745 94.2901 70.2905 95.3946 70.4066 96.4991C68.9904 96.6479 67.5742 96.7968 66.158 96.9456C66.2456 97.779 66.3332 98.6125 66.4208 99.446C67.8845 99.2921 69.3482 99.1383 70.8117 98.9845C70.9272 100.0822 71.0426 101.1799 71.1579 102.2777ZM71.9303 87.3984C73.1703 87.2682 74.4104 87.1378 75.6504 87.0075C75.8426 88.837 76.035 90.6665 76.2272 92.4961C77.8264 92.328 79.4255 92.16 81.0247 91.9919C80.8323 90.1624 80.6401 88.3328 80.4478 86.5033C81.6878 86.373 82.9278 86.2427 84.1678 86.1123C84.6805 90.9911 85.1933 95.8698 85.7062 100.7486C84.4661 100.8789 83.2261 101.0092 81.986 101.1396C81.7802 99.1813 81.5744 97.223 81.3687 95.2647C79.7695 95.4327 78.1703 95.6009 76.5712 95.7689C76.777 97.7272 76.9828 99.6854 77.1887 101.6437C75.9486 101.774 74.7086 101.9044 73.4685 102.0347C72.9558 97.1559 72.4431 92.2772 71.9303 87.3984ZM91.4793 93.8115C91.5861 94.8279 91.6929 95.8444 91.7998 96.8608C92.0031 96.8393 92.2064 96.818 92.4096 96.7967C93.8055 96.6499 94.4551 96.1159 94.3582 95.1943C94.2414 94.083 93.485 93.6007 92.0891 93.7474C91.8859 93.7688 91.6826 93.7902 91.4793 93.8115ZM88.3971 100.4656C87.8842 95.5869 87.3715 90.7082 86.8587 85.8296C88.1055 85.6985 89.3522 85.5674 90.599 85.4364C90.7857 87.2117 90.9722 88.987 91.1588 90.7624C91.4231 90.7345 91.6873 90.7067 91.9516 90.6789C95.5836 90.2973 97.5648 91.6785 97.8952 94.8224C98.0605 96.3946 97.6558 97.6292 96.6814 98.5262C95.8204 99.3292 94.5769 99.8162 92.9505 99.987C91.4328 100.1466 89.9149 100.3061 88.3971 100.4656ZM103.2365 98.9061C101.9898 99.0371 100.743 99.1681 99.4961 99.2991C98.9833 94.4203 98.4706 89.5416 97.9577 84.6628C99.2045 84.5318 100.4514 84.4008 101.6981 84.2699C102.2109 89.1486 102.7238 94.0273 103.2365 98.9061Z"></path></svg> 