<?xml version="1.0" encoding="UTF-8"?> <svg xmlns="http://www.w3.org/2000/svg" width="36" height="36" viewBox="0 0 36 36" fill="none"> <g clip-path="url(#clip0_118_1932)"> <path d="M18 3C26.2845 3 33 9.7155 33 18C33 26.2845 26.2845 33 18 33C9.7155 33 3 26.2845 3 18C3 9.7155 9.7155 3 18 3ZM20.505 24H15.495L13.425 26.8455L14.256 29.4045C15.4645 29.8003 16.7283 30.0013 18 30C19.3065 30 20.565 29.79 21.744 29.4045L22.5735 26.8455L20.5035 24H20.505ZM7.941 16.308L6.003 17.7135L6 18C6 20.595 6.8235 22.9965 8.223 24.96H11.088L13.0725 22.23L11.5305 17.475L7.941 16.308ZM28.059 16.308L24.4695 17.475L22.9275 22.23L24.9105 24.96H27.7755C29.2257 22.9293 30.0036 20.4954 30 18L29.9955 17.715L28.059 16.308ZM18 14.304L14.484 16.857L15.828 21H20.1705L21.5145 16.857L18 14.304ZM21.4365 6.4995L19.5 7.9095V11.685L23.541 14.6205L26.8995 13.53L27.7305 10.9755C26.182 8.83181 23.9697 7.25857 21.4365 6.4995ZM14.562 6.4995C12.0291 7.25926 9.81743 8.83301 8.2695 10.977L9.1005 13.53L12.459 14.6205L16.5 11.685V7.9095L14.562 6.4995Z" fill="#333333"></path> </g> <defs> <clipPath id="clip0_118_1932"> <rect width="36" height="36" fill="white"></rect> </clipPath> </defs> </svg> 