<?xml version="1.0" encoding="UTF-8"?> <svg xmlns="http://www.w3.org/2000/svg" width="28" height="28" viewBox="0 0 28 28" fill="none"> <rect width="28" height="28" rx="14" fill="#333333"></rect> <path d="M7 20.4812L8.00447 16.7463C7.19439 15.2914 6.93702 13.5937 7.27959 11.9646C7.62215 10.3355 8.54168 8.88443 9.86942 7.87757C11.1972 6.87072 12.8441 6.37565 14.5079 6.48321C16.1718 6.59078 17.741 7.29375 18.9276 8.46315C20.1142 9.63255 20.8386 11.1899 20.9678 12.8495C21.0971 14.5091 20.6226 16.1595 19.6313 17.498C18.64 18.8364 17.1986 19.7731 15.5713 20.1362C13.9441 20.4992 12.2404 20.2643 10.7727 19.4744L7 20.4812ZM10.9546 18.0768L11.1879 18.215C12.251 18.8441 13.4927 19.1044 14.7194 18.9554C15.9461 18.8064 17.0891 18.2565 17.9701 17.3913C18.851 16.5261 19.4206 15.3943 19.59 14.1722C19.7594 12.9501 19.5191 11.7064 18.9065 10.6348C18.294 9.56333 17.3436 8.72421 16.2035 8.24824C15.0633 7.77227 13.7975 7.6862 12.6033 8.00343C11.409 8.32066 10.3535 9.02337 9.60103 10.0021C8.8486 10.9808 8.44159 12.1805 8.44343 13.4142C8.44243 14.4372 8.72581 15.4403 9.26203 16.3121L9.40835 16.5529L8.8468 18.6375L10.9546 18.0768Z" fill="white"></path> <path fill-rule="evenodd" clip-rule="evenodd" d="M16.6183 14.374C16.4815 14.2639 16.3213 14.1863 16.15 14.1473C15.9787 14.1083 15.8007 14.1089 15.6296 14.149C15.3726 14.2556 15.2065 14.6583 15.0404 14.8596C15.0053 14.9079 14.9539 14.9417 14.8956 14.9548C14.8374 14.9679 14.7764 14.9593 14.724 14.9307C13.7829 14.5627 12.9941 13.8879 12.4857 13.0159C12.4423 12.9615 12.4218 12.8924 12.4284 12.8231C12.4351 12.7539 12.4684 12.69 12.5213 12.6448C12.7065 12.4617 12.8426 12.2349 12.9168 11.9854C12.9332 11.7103 12.8701 11.4362 12.7348 11.1958C12.6303 10.8589 12.4313 10.5589 12.1614 10.3312C12.0222 10.2687 11.8679 10.2477 11.717 10.2709C11.5661 10.294 11.4252 10.3602 11.3112 10.4615C11.1132 10.632 10.9561 10.8446 10.8514 11.0838C10.7467 11.3229 10.6971 11.5825 10.7061 11.8433C10.7067 11.9898 10.7253 12.1356 10.7615 12.2776C10.8533 12.6187 10.9945 12.9445 11.1807 13.2449C11.315 13.4749 11.4615 13.6976 11.6196 13.9121C12.1336 14.6164 12.7796 15.2144 13.5218 15.6729C13.8943 15.9059 14.2923 16.0953 14.7082 16.2375C15.1402 16.433 15.6171 16.508 16.0883 16.4546C16.3568 16.414 16.6112 16.3082 16.8292 16.1464C17.0471 15.9846 17.2218 15.7719 17.338 15.5268C17.4063 15.3788 17.427 15.2133 17.3973 15.0531C17.3261 14.7254 16.8872 14.5319 16.6183 14.374Z" fill="white"></path> </svg> 