<?xml version="1.0" encoding="UTF-8"?> <svg xmlns="http://www.w3.org/2000/svg" width="36" height="36" viewBox="0 0 36 36" fill="none"> <g clip-path="url(#clip0_118_1911)"> <path d="M14.9598 27H21.0408C21.2388 25.197 22.1583 23.709 23.6508 22.0845C23.8203 21.9015 24.8988 20.784 25.0263 20.625C26.0857 19.3015 26.7498 17.7056 26.942 16.0212C27.1342 14.3368 26.8467 12.6323 26.1127 11.1041C25.3786 9.57594 24.2279 8.28614 22.793 7.38329C21.358 6.48043 19.6973 6.00123 18.0019 6.00087C16.3066 6.00051 14.6456 6.479 13.2103 7.38124C11.775 8.28349 10.6237 9.57279 9.889 11.1007C9.15431 12.6285 8.86612 14.3329 9.05759 16.0174C9.24907 17.7019 9.91244 19.298 10.9713 20.622C11.1003 20.7825 12.1818 21.9015 12.3483 22.083C13.8423 23.709 14.7618 25.197 14.9598 27ZM21.0003 30H15.0003V31.5H21.0003V30ZM8.63131 22.5C7.21859 20.735 6.33323 18.6067 6.0772 16.3605C5.82118 14.1142 6.20491 11.8413 7.18419 9.80364C8.16347 7.76594 9.69846 6.04633 11.6123 4.8429C13.5262 3.63946 15.7411 3.00116 18.0019 3.00153C20.2627 3.00189 22.4774 3.6409 24.3909 4.84494C26.3044 6.04899 27.8389 7.76909 28.8175 9.8071C29.7961 11.8451 30.1791 14.1181 29.9224 16.3643C29.6656 18.6105 28.7796 20.7384 27.3663 22.503C26.4363 23.661 24.0003 25.5 24.0003 27.75V31.5C24.0003 32.2957 23.6842 33.0587 23.1216 33.6213C22.559 34.184 21.796 34.5 21.0003 34.5H15.0003C14.2047 34.5 13.4416 34.184 12.879 33.6213C12.3164 33.0587 12.0003 32.2957 12.0003 31.5V27.75C12.0003 25.5 9.56281 23.661 8.63131 22.5ZM19.5003 15.006H23.2503L16.5003 24.006V18.006H12.7503L19.5003 9.00002V15.0075V15.006Z" fill="#333333"></path> </g> <defs> <clipPath id="clip0_118_1911"> <rect width="36" height="36" fill="white"></rect> </clipPath> </defs> </svg> 