<?xml version="1.0" encoding="UTF-8"?> <svg xmlns="http://www.w3.org/2000/svg" width="40" height="40" viewBox="0 0 40 40" fill="none"><circle cx="20" cy="20" r="17.7011" fill="white"></circle><path d="M31.9121 16.8047C31.8184 16.4609 31.9434 15.9219 32.0605 15.4062C32.2402 14.6328 32.4434 13.7578 32.0293 13.0547C31.6152 12.3359 30.748 12.0703 29.9824 11.8438C29.4824 11.6875 28.959 11.5313 28.7168 11.2891C28.4746 11.0469 28.3105 10.5234 28.1621 10.0234C27.9277 9.25781 27.6699 8.39063 26.9512 7.97656C26.6699 7.8125 26.3418 7.73438 25.959 7.73438C25.5137 7.73438 25.0449 7.84375 24.5996 7.94531C24.1934 8.03906 23.8105 8.125 23.4824 8.125C23.373 8.125 23.2793 8.11719 23.1934 8.09375C22.873 8.00781 22.4824 7.64063 22.1074 7.28906C21.5215 6.73438 20.8496 6.10938 19.998 6.10938C19.1465 6.10938 18.4824 6.73438 17.8887 7.28906C17.5137 7.64063 17.123 8.00781 16.8027 8.09375C16.7246 8.11719 16.623 8.125 16.5137 8.125C16.1934 8.125 15.8027 8.03906 15.3965 7.94531C14.9434 7.84375 14.4824 7.73438 14.0371 7.73438C13.6465 7.73438 13.3262 7.8125 13.0449 7.97656C12.3262 8.39063 12.0605 9.25781 11.834 10.0234C11.6777 10.5234 11.5215 11.0469 11.2793 11.2891C11.0371 11.5313 10.5137 11.6953 10.0137 11.8438C9.24805 12.0781 8.38086 12.3359 7.9668 13.0547C7.55273 13.7656 7.75586 14.6406 7.93555 15.4062C8.05273 15.9219 8.17773 16.4609 8.08398 16.8047C7.99805 17.125 7.63086 17.5156 7.2793 17.8906C6.72461 18.4766 6.09961 19.1484 6.09961 20C6.09961 20.8516 6.72461 21.5156 7.2793 22.1094C7.63086 22.4844 7.99805 22.875 8.08398 23.1953C8.17773 23.5391 8.05273 24.0781 7.93555 24.5937C7.75586 25.3672 7.55273 26.2422 7.9668 26.9453C8.38086 27.6641 9.24805 27.9297 10.0137 28.1563C10.5137 28.3125 11.0371 28.4687 11.2793 28.7109C11.5215 28.9531 11.6855 29.4766 11.834 29.9766C12.0684 30.7422 12.3262 31.6094 13.0449 32.0234C13.3262 32.1875 13.6543 32.2656 14.0371 32.2656C14.4824 32.2656 14.9512 32.1562 15.3965 32.0547C15.8027 31.9609 16.1855 31.875 16.5137 31.875C16.623 31.875 16.7168 31.8828 16.8027 31.9063C17.123 31.9922 17.5137 32.3594 17.8887 32.7109C18.4746 33.2656 19.1465 33.8906 19.998 33.8906C20.8496 33.8906 21.5137 33.2656 22.1074 32.7109C22.4824 32.3594 22.873 31.9922 23.1934 31.9063C23.2715 31.8828 23.373 31.875 23.4824 31.875C23.8027 31.875 24.1934 31.9609 24.5996 32.0547C25.0527 32.1562 25.5137 32.2656 25.959 32.2656C26.3496 32.2656 26.6699 32.1875 26.9512 32.0234C27.6699 31.6094 27.9355 30.7422 28.1621 29.9766C28.3184 29.4766 28.4746 28.9531 28.7168 28.7109C28.959 28.4687 29.4824 28.3047 29.9824 28.1563C30.748 27.9219 31.6152 27.6641 32.0293 26.9453C32.4434 26.2344 32.2402 25.3594 32.0605 24.5937C31.9434 24.0781 31.8184 23.5391 31.9121 23.1953C31.998 22.875 32.3652 22.4844 32.7168 22.1094C33.2715 21.5234 33.8965 20.8516 33.8965 20C33.8965 19.1484 33.2715 18.4844 32.7168 17.8906C32.3652 17.5156 31.998 17.125 31.9121 16.8047ZM31.8574 21.3047C31.4043 21.7891 30.9434 22.2813 30.7793 22.8906C30.6074 23.5234 30.7715 24.2031 30.9199 24.8594C31.0527 25.4453 31.1934 26.0547 31.0137 26.3672C30.8262 26.6875 30.2246 26.8672 29.6387 27.0469C28.998 27.2422 28.334 27.4453 27.8809 27.8984C27.4277 28.3516 27.2246 29.0156 27.0293 29.6563C26.8496 30.2422 26.6699 30.8437 26.3496 31.0312C26.248 31.0859 26.1152 31.1172 25.9434 31.1172C25.6309 31.1172 25.248 31.0312 24.8418 30.9375C24.3887 30.8359 23.9199 30.7266 23.4668 30.7266C23.248 30.7266 23.0605 30.75 22.8809 30.7969C22.2715 30.9609 21.7793 31.4219 21.2949 31.875C20.8418 32.2969 20.373 32.7344 19.9902 32.7344C19.6074 32.7344 19.1387 32.2969 18.6855 31.875C18.2012 31.4219 17.709 30.9609 17.0996 30.7969C16.9199 30.75 16.7246 30.7266 16.5137 30.7266C16.0605 30.7266 15.5918 30.8359 15.1387 30.9375C14.7324 31.0312 14.3574 31.1172 14.0371 31.1172C13.8652 31.1172 13.7324 31.0859 13.6309 31.0312C13.3105 30.8437 13.1309 30.2422 12.9512 29.6563C12.7559 29.0156 12.5527 28.3516 12.0996 27.8984C11.6465 27.4453 10.9824 27.2422 10.3418 27.0469C9.75586 26.8672 9.1543 26.6875 8.9668 26.3672C8.78711 26.0547 8.92773 25.4531 9.06055 24.8594C9.20898 24.2031 9.37305 23.5234 9.20117 22.8906C9.03711 22.2813 8.57617 21.7891 8.12305 21.3047C7.70117 20.8516 7.26367 20.3828 7.26367 20C7.26367 19.6094 7.70117 19.1484 8.12305 18.6953C8.57617 18.2109 9.03711 17.7188 9.20117 17.1094C9.37305 16.4766 9.20898 15.7969 9.06055 15.1406C8.92773 14.5547 8.78711 13.9453 8.9668 13.6328C9.1543 13.3125 9.75586 13.1328 10.3418 12.9531C10.9824 12.7578 11.6465 12.5547 12.0996 12.1016C12.5527 11.6484 12.7559 10.9844 12.9512 10.3437C13.1309 9.75781 13.3105 9.15625 13.6309 8.96875C13.7324 8.91406 13.8652 8.88281 14.0371 8.88281C14.3496 8.88281 14.7324 8.96875 15.1387 9.0625C15.5918 9.16406 16.0605 9.27344 16.5137 9.27344C16.7324 9.27344 16.9199 9.25 17.0996 9.20313C17.709 9.03906 18.2012 8.57813 18.6855 8.125C19.1387 7.70313 19.6074 7.26563 19.9902 7.26563C20.373 7.26563 20.8418 7.70313 21.2949 8.125C21.7793 8.57813 22.2715 9.03906 22.8809 9.20313C23.0605 9.25 23.2559 9.27344 23.4668 9.27344C23.9199 9.27344 24.3887 9.16406 24.8418 9.0625C25.248 8.96875 25.623 8.88281 25.9434 8.88281C26.1152 8.88281 26.248 8.91406 26.3496 8.96875C26.6699 9.15625 26.8496 9.75781 27.0293 10.3437C27.2246 10.9844 27.4277 11.6484 27.8809 12.1016C28.334 12.5547 28.998 12.7578 29.6387 12.9531C30.2246 13.1328 30.8262 13.3125 31.0137 13.6328C31.1934 13.9453 31.0527 14.5469 30.9199 15.1406C30.7715 15.7969 30.6074 16.4766 30.7793 17.1094C30.9434 17.7188 31.4043 18.2109 31.8574 18.6953C32.2793 19.1484 32.7168 19.6172 32.7168 20C32.7246 20.3906 32.2871 20.8516 31.8574 21.3047Z" fill="#F10063"></path><path d="M15.5371 18.3281C17.0762 18.3281 18.3184 17.0781 18.3184 15.5469C18.3184 14.0078 17.0684 12.7656 15.5371 12.7656C13.998 12.7656 12.7559 14.0156 12.7559 15.5469C12.7559 17.0781 14.0059 18.3281 15.5371 18.3281ZM15.5371 13.9297C16.4277 13.9297 17.1465 14.6562 17.1465 15.5391C17.1465 16.4297 16.4199 17.1484 15.5371 17.1484C14.6543 17.1484 13.9277 16.4219 13.9277 15.5391C13.9277 14.6562 14.6543 13.9297 15.5371 13.9297Z" fill="#F10063"></path><path d="M24.459 21.6719C22.9199 21.6719 21.6777 22.9219 21.6777 24.4531C21.6777 25.9922 22.9277 27.2344 24.459 27.2344C25.998 27.2344 27.2402 25.9844 27.2402 24.4531C27.2402 22.9219 25.9902 21.6719 24.459 21.6719ZM24.459 26.0703C23.5684 26.0703 22.8496 25.3438 22.8496 24.4609C22.8496 23.5781 23.5762 22.8516 24.459 22.8516C25.3418 22.8516 26.0684 23.5781 26.0684 24.4609C26.0684 25.3438 25.3418 26.0703 24.459 26.0703Z" fill="#F10063"></path><path d="M26.4824 13.5156C26.2559 13.2891 25.8809 13.2891 25.6543 13.5156L13.5137 25.6484C13.2871 25.875 13.2871 26.25 13.5137 26.4766C13.6309 26.5937 13.7793 26.6484 13.9277 26.6484C14.0762 26.6484 14.2246 26.5937 14.3418 26.4766L26.4824 14.3516C26.709 14.1172 26.709 13.75 26.4824 13.5156Z" fill="#F10063"></path></svg> 