<?xml version="1.0" encoding="UTF-8"?> <svg xmlns="http://www.w3.org/2000/svg" viewBox="0 0 146.00 146.00" data-guides="{&quot;vertical&quot;:[],&quot;horizontal&quot;:[]}"><defs></defs><path fill="#ff2929" stroke="none" fill-opacity="1" stroke-width="1" stroke-opacity="1" id="tSvg8fac906d66" title="Path 1" d="M72.2766 0.4122C72.7248 0.1565 73.2749 0.1565 73.7232 0.4122C75.116 1.2065 76.5088 2.001 77.9015 2.7953C78.2796 3.0109 78.7339 3.0467 79.141 2.8929C80.6409 2.3261 82.1407 1.7594 83.6406 1.1927C84.1235 1.0103 84.6667 1.0963 85.0696 1.419C86.3209 2.4215 87.5723 3.424 88.8236 4.4264C89.1631 4.6985 89.6064 4.8049 90.0324 4.7167C91.6025 4.3916 93.1726 4.0664 94.7427 3.7413C95.2482 3.6367 95.7712 3.8067 96.1185 4.1884C97.1977 5.3743 98.2769 6.5601 99.356 7.746C99.6489 8.0678 100.0699 8.2423 100.5046 8.2218C102.1062 8.1463 103.7078 8.0709 105.3095 7.9953C105.825 7.971 106.3151 8.2208 106.5985 8.6521C107.4788 9.9923 108.3592 11.3323 109.2394 12.6724C109.4784 13.0361 109.8669 13.2743 110.2994 13.322C111.8932 13.498 113.4869 13.674 115.0807 13.85C115.5935 13.9067 116.0386 14.2299 116.251 14.7004C116.9109 16.1617 117.5707 17.6231 118.2306 19.0843C118.4096 19.4808 118.7562 19.7768 119.1759 19.8917C120.7225 20.3148 122.269 20.738 123.8156 21.1611C124.3134 21.2973 124.7024 21.6862 124.8386 22.1841C125.2617 23.7306 125.6848 25.2771 126.1079 26.8236C126.2228 27.2434 126.5188 27.59 126.9152 27.769C128.3766 28.4289 129.8379 29.0888 131.2992 29.7486C131.7697 29.9611 132.093 30.406 132.1497 30.919C132.3256 32.5127 132.5016 34.1065 132.6777 35.7002C132.7253 36.1326 132.9635 36.5213 133.3272 36.7601C134.6672 37.6405 136.0074 38.5208 137.3474 39.4012C137.7789 39.6845 138.0285 40.1747 138.0043 40.6901C137.9289 42.2918 137.8533 43.8935 137.7779 45.4951C137.7572 45.9297 137.9317 46.3508 138.2535 46.6436C139.4394 47.7228 140.6254 48.8019 141.8112 49.881C142.1929 50.2283 142.363 50.7515 142.2583 51.257C141.9332 52.827 141.6082 54.3971 141.283 55.9672C141.1947 56.3932 141.3011 56.8365 141.5731 57.1759C142.5756 58.4273 143.5781 59.6787 144.5806 60.93C144.9033 61.3328 144.9894 61.8761 144.8069 62.3589C144.2401 63.8588 143.6734 65.3587 143.1067 66.8587C142.953 67.2657 142.9887 67.7201 143.2044 68.098C143.9987 69.4908 144.7931 70.8837 145.5874 72.2765C145.8432 72.7247 145.8432 73.2748 145.5874 73.723C144.7931 75.1158 143.9987 76.5086 143.2044 77.9014C142.9887 78.2794 142.953 78.7338 143.1067 79.1408C143.6734 80.6408 144.2401 82.1406 144.8069 83.6405C144.9894 84.1233 144.9033 84.6666 144.5806 85.0695C143.5781 86.3208 142.5756 87.5722 141.5731 88.8235C141.3011 89.163 141.1947 89.6063 141.283 90.0322C141.6082 91.6024 141.9332 93.1725 142.2583 94.7425C142.363 95.248 142.1929 95.771 141.8112 96.1184C140.6254 97.1976 139.4394 98.2767 138.2535 99.3558C137.9317 99.6487 137.7572 100.0698 137.7779 100.5044C137.8533 102.106 137.9289 103.7076 138.0043 105.3093C138.0285 105.8248 137.7789 106.3149 137.3474 106.5983C136.0074 107.4786 134.6672 108.359 133.3272 109.2393C132.9635 109.4782 132.7253 109.8668 132.6777 110.2993C132.5016 111.893 132.3256 113.4868 132.1497 115.0805C132.093 115.5934 131.7697 116.0384 131.2992 116.2509C129.8379 116.9107 128.3766 117.5706 126.9152 118.2304C126.5188 118.4094 126.2228 118.756 126.1079 119.1758C125.6848 120.7223 125.2617 122.2688 124.8386 123.8154C124.7024 124.3132 124.3134 124.7022 123.8156 124.8384C122.269 125.2615 120.7225 125.6846 119.1759 126.1077C118.7562 126.2227 118.4096 126.5186 118.2306 126.9151C117.5707 128.3764 116.9109 129.8377 116.251 131.2991C116.0386 131.7695 115.5935 132.0929 115.0807 132.1496C113.4869 132.3255 111.8932 132.5015 110.2994 132.6775C109.8669 132.7252 109.4784 132.9634 109.2394 133.327C108.3592 134.6671 107.4788 136.0072 106.5985 137.3473C106.3151 137.7787 105.825 138.0283 105.3095 138.0042C103.7078 137.9287 102.1062 137.8531 100.5046 137.7777C100.0699 137.7571 99.6489 137.9316 99.356 138.2534C98.2769 139.4392 97.1977 140.6252 96.1185 141.8111C95.7712 142.1927 95.2482 142.3628 94.7427 142.2582C93.1726 141.9331 91.6025 141.608 90.0324 141.2828C89.6064 141.1945 89.1631 141.301 88.8236 141.573C87.5723 142.5755 86.3209 143.578 85.0696 144.5805C84.6667 144.9031 84.1235 144.9893 83.6406 144.8067C82.1407 144.24 80.6409 143.6732 79.141 143.1066C78.7339 142.9528 78.2796 142.9886 77.9015 143.2042C76.5088 143.9985 75.116 144.7929 73.7232 145.5873C73.2749 145.843 72.7248 145.843 72.2766 145.5873C70.8838 144.7929 69.491 143.9985 68.0982 143.2042C67.7202 142.9886 67.2659 142.9528 66.8588 143.1066C65.3589 143.6732 63.859 144.24 62.3591 144.8067C61.8762 144.9893 61.333 144.9031 60.9302 144.5805C59.6789 143.578 58.4275 142.5755 57.1761 141.573C56.8367 141.301 56.3934 141.1945 55.9673 141.2828C54.3973 141.608 52.8272 141.9331 51.2571 142.2582C50.7516 142.3628 50.2285 142.1927 49.8812 141.8111C48.8021 140.6252 47.7229 139.4392 46.6437 138.2534C46.3509 137.9316 45.9299 137.7571 45.4952 137.7777C43.8936 137.8531 42.2919 137.9287 40.6903 138.0042C40.1748 138.0283 39.6846 137.7787 39.4013 137.3473C38.5209 136.0072 37.6406 134.6671 36.7602 133.327C36.5214 132.9634 36.1328 132.7252 35.7004 132.6775C34.1066 132.5015 32.5129 132.3255 30.9191 132.1496C30.4062 132.0929 29.9612 131.7695 29.7488 131.2991C29.0889 129.8377 28.4291 128.3764 27.7692 126.9151C27.5901 126.5186 27.2436 126.2227 26.8238 126.1077C25.2773 125.6846 23.7307 125.2615 22.1842 124.8384C21.6863 124.7022 21.2974 124.3132 21.1612 123.8154C20.7381 122.2688 20.3149 120.7223 19.8918 119.1758C19.777 118.756 19.481 118.4094 19.0844 118.2304C17.6232 117.5706 16.1619 116.9107 14.7006 116.2509C14.2301 116.0384 13.9069 115.5934 13.8502 115.0805C13.6742 113.4868 13.4982 111.893 13.3221 110.2993C13.2745 109.8668 13.0363 109.4782 12.6726 109.2393C11.3325 108.359 9.9924 107.4786 8.6523 106.5983C8.2209 106.3149 7.9712 105.8248 7.9955 105.3093C8.071 103.7076 8.1465 102.106 8.2219 100.5044C8.2425 100.0698 8.068 99.6487 7.7462 99.3558C6.5603 98.2767 5.3744 97.1976 4.1886 96.1184C3.8068 95.771 3.6368 95.248 3.7415 94.7425C4.0666 93.1725 4.3917 91.6024 4.7168 90.0322C4.805 89.6063 4.6986 89.163 4.4266 88.8235C3.4242 87.5722 2.4217 86.3208 1.4192 85.0695C1.0964 84.6666 1.0105 84.1233 1.1928 83.6405C1.7596 82.1406 2.3263 80.6408 2.893 79.1408C3.0468 78.7338 3.0111 78.2794 2.7954 77.9014C2.0011 76.5086 1.2067 75.1158 0.4124 73.723C0.1566 73.2748 0.1566 72.7247 0.4124 72.2765C1.2067 70.8837 2.0011 69.4908 2.7954 68.098C3.0111 67.7201 3.0468 67.2657 2.893 66.8587C2.3263 65.3587 1.7596 63.8588 1.1928 62.3589C1.0105 61.8761 1.0964 61.3328 1.4192 60.93C2.4217 59.6787 3.4242 58.4273 4.4266 57.1759C4.6986 56.8365 4.805 56.3932 4.7168 55.9672C4.3917 54.3971 4.0666 52.827 3.7415 51.257C3.6368 50.7515 3.8068 50.2283 4.1886 49.881C5.3744 48.8019 6.5603 47.7228 7.7462 46.6436C8.068 46.3508 8.2425 45.9297 8.2219 45.4951C8.1465 43.8935 8.071 42.2918 7.9955 40.6901C7.9712 40.1747 8.2209 39.6845 8.6523 39.4012C9.9924 38.5208 11.3325 37.6405 12.6726 36.7601C13.0363 36.5213 13.2745 36.1326 13.3221 35.7002C13.4982 34.1065 13.6742 32.5127 13.8502 30.919C13.9069 30.406 14.2301 29.9611 14.7006 29.7486C16.1619 29.0888 17.6232 28.4289 19.0844 27.769C19.481 27.59 19.777 27.2434 19.8918 26.8236C20.3149 25.2771 20.7381 23.7306 21.1612 22.1841C21.2974 21.6862 21.6863 21.2973 22.1842 21.1611C23.7307 20.738 25.2773 20.3148 26.8238 19.8917C27.2436 19.7768 27.5901 19.4808 27.7692 19.0843C28.4291 17.6231 29.0889 16.1617 29.7488 14.7004C29.9612 14.2299 30.4062 13.9067 30.9191 13.85C32.5129 13.674 34.1066 13.498 35.7004 13.322C36.1328 13.2743 36.5214 13.0361 36.7602 12.6724C37.6406 11.3323 38.5209 9.9923 39.4013 8.6521C39.6846 8.2208 40.1748 7.971 40.6903 7.9953C42.2919 8.0709 43.8936 8.1463 45.4952 8.2218C45.9299 8.2423 46.3509 8.0678 46.6437 7.746C47.7229 6.5601 48.8021 5.3743 49.8812 4.1884C50.2285 3.8067 50.7516 3.6367 51.2571 3.7413C52.8272 4.0664 54.3973 4.3916 55.9673 4.7167C56.3934 4.8049 56.8367 4.6985 57.1761 4.4264C58.4275 3.424 59.6789 2.4215 60.9302 1.419C61.333 1.0963 61.8762 1.0103 62.3591 1.1927C63.859 1.7594 65.3589 2.3261 66.8588 2.8929C67.2659 3.0467 67.7202 3.0109 68.0982 2.7953C69.491 2.001 70.8838 1.2065 72.2766 0.4122Z"></path><path fill="white" stroke="none" fill-opacity="1" stroke-width="1" stroke-opacity="1" id="tSvg6ccf2c4acd" title="Path 2" d="M32.1042 56.6281C33.3442 56.4978 34.5841 56.3674 35.8241 56.237C36.0165 58.0665 36.2088 59.8961 36.4012 61.7256C38.0003 61.5575 39.5994 61.3895 41.1985 61.2214C41.0062 59.3919 40.8139 57.5624 40.6216 55.7328C41.8616 55.6026 43.1017 55.4722 44.3416 55.3419C44.8545 60.2207 45.3673 65.0994 45.88 69.9782C44.6401 70.1084 43.4 70.2388 42.16 70.3691C41.9542 68.4109 41.7483 66.4525 41.5425 64.4942C39.9434 64.6623 38.3443 64.8304 36.7451 64.9985C36.951 66.9568 37.1567 68.915 37.3625 70.8733C36.1225 71.0035 34.8825 71.1339 33.6425 71.2642C33.1297 66.3855 32.6169 61.5069 32.1042 56.6281ZM47.0326 55.0591C48.2793 54.928 49.5262 54.7969 50.773 54.6659C51.0636 57.4305 51.3541 60.1951 51.6447 62.9597C53.3056 59.99 54.9665 57.0203 56.6274 54.0505C57.6234 53.9458 58.6195 53.8412 59.6156 53.7364C60.1284 58.6152 60.6413 63.4939 61.154 68.3727C59.9411 68.5002 58.7281 68.6277 57.5152 68.7552C57.2211 65.9567 56.9269 63.1581 56.6328 60.3596C54.9754 63.3632 53.3182 66.3669 51.6608 69.3705C50.6308 69.4787 49.6008 69.5869 48.5708 69.6951C48.0581 64.8165 47.5454 59.9377 47.0326 55.0591ZM66.1226 57.3687C64.8961 57.4976 63.6697 57.6265 62.4432 57.7554C62.2979 56.3731 62.675 55.2031 63.5745 54.2453C64.4256 53.3473 65.5559 52.8244 66.9653 52.6762C68.334 52.5324 69.497 52.7117 70.4541 53.2139C71.5431 53.7982 72.1568 54.7477 72.2948 56.0622C72.4631 57.6614 71.8153 58.7981 70.3515 59.4727C72.2587 59.8887 73.3041 60.9709 73.4878 62.7193C73.6274 64.0473 73.169 65.2259 72.1125 66.255C71.1287 67.1942 69.9526 67.7357 68.5839 67.8795C67.066 68.0391 65.7778 67.7771 64.7195 67.0936C63.5877 66.3632 62.9035 65.2635 62.6669 63.7949C63.9273 63.6624 65.1876 63.53 66.448 63.3974C66.7195 64.2869 67.35 64.6796 68.3392 64.5756C68.8136 64.5259 69.1706 64.3376 69.4103 64.0109C69.6486 63.6708 69.7422 63.2567 69.6908 62.7689C69.6125 62.0236 69.1567 61.5987 68.3238 61.4944C68.0742 61.4658 67.3869 61.5107 66.2622 61.6289C66.166 60.7142 66.0698 59.7994 65.9736 58.8846C66.2379 58.8568 66.5022 58.8291 66.7664 58.8014C67.2814 58.7472 67.7164 58.585 68.0718 58.3147C68.4905 57.9968 68.6749 57.6005 68.625 57.1262C68.5895 56.7874 68.4158 56.5042 68.1042 56.2766C67.8061 56.0476 67.4808 55.9515 67.1285 55.9887C66.3966 56.0656 66.0613 56.5255 66.1226 57.3687ZM79.7471 66.4185C78.5003 66.5495 77.2536 66.6806 76.0068 66.8117C75.494 61.9329 74.9812 57.0542 74.4685 52.1754C75.7153 52.0444 76.9621 51.9134 78.2089 51.7823C78.4417 53.998 78.6746 56.2137 78.9075 58.4295C80.0636 56.0677 81.2198 53.706 82.3761 51.3443C83.6838 51.2068 84.9916 51.0694 86.2994 50.932C84.9356 53.5348 83.5717 56.1376 82.208 58.7403C84.1862 61.0056 86.1644 63.2708 88.1425 65.5361C86.6857 65.6891 85.2289 65.8423 83.772 65.9954C82.2068 64.0088 80.6415 62.0221 79.0763 60.0355C79.2998 62.1632 79.5235 64.2908 79.7471 66.4185ZM88.0263 50.7505C89.273 50.6194 90.5198 50.4884 91.7666 50.3573C92.0572 53.1219 92.3477 55.8865 92.6382 58.6511C94.2992 55.6814 95.9601 52.7118 97.6211 49.742C98.6172 49.6373 99.6132 49.5325 100.6092 49.4279C101.1221 54.3066 101.6348 59.1854 102.1475 64.064C100.9346 64.1916 99.7218 64.3191 98.5089 64.4466C98.2147 61.6481 97.9207 58.8496 97.6265 56.051C95.9692 59.0546 94.3118 62.0582 92.6545 65.0618C91.6245 65.1702 90.5944 65.2784 89.5645 65.3867C89.0517 60.508 88.539 55.6292 88.0263 50.7505ZM112.9219 62.9317C110.2115 63.2165 107.5011 63.5014 104.7907 63.7862C104.2779 58.9076 103.7651 54.0288 103.2523 49.1502C105.9627 48.8652 108.6732 48.5804 111.3836 48.2955C111.4983 49.3864 111.6129 50.4773 111.7276 51.5682C110.264 51.722 108.8003 51.8759 107.3366 52.0298C107.4158 52.7819 107.4948 53.534 107.5739 54.2861C108.9901 54.1374 110.4063 53.9885 111.8225 53.8396C111.9386 54.9441 112.0547 56.0486 112.1707 57.1531C110.7545 57.302 109.3383 57.4508 107.9221 57.5996C108.0097 58.4331 108.0973 59.2666 108.1849 60.1001C109.6486 59.9462 111.1121 59.7924 112.5757 59.6385C112.6911 60.7363 112.8065 61.834 112.9219 62.9317ZM54.9128 79.1875C56.1596 79.0565 57.4064 78.9255 58.6532 78.7945C59.0513 82.5822 59.4495 86.3701 59.8476 90.1578C60.3286 90.1073 60.8097 90.0567 61.2908 90.0061C61.5052 92.0457 61.7196 94.0853 61.9339 96.1248C60.8227 96.2416 59.7114 96.3584 58.6002 96.4752C58.5005 95.5266 58.4007 94.5779 58.3011 93.6292C54.9604 93.9805 51.6199 94.3316 48.2792 94.6827C47.7665 89.8039 47.2538 84.9252 46.741 80.0464C47.9877 79.9153 49.2345 79.7844 50.4813 79.6533C50.8794 83.4411 51.2775 87.2289 51.6757 91.0168C53.1529 90.8615 54.63 90.7062 56.1072 90.5509C55.7091 86.7631 55.3109 82.9753 54.9128 79.1875ZM71.1579 92.2781C68.4475 92.5629 65.7371 92.8478 63.0266 93.1325C62.5138 88.2539 62.0011 83.3752 61.4884 78.4965C64.1988 78.2116 66.9091 77.9267 69.6195 77.6418C69.7342 78.7327 69.8489 79.8237 69.9635 80.9146C68.4999 81.0684 67.0364 81.2222 65.5727 81.3761C65.6517 82.1282 65.7307 82.8804 65.8099 83.6325C67.2261 83.4837 68.6423 83.3348 70.0585 83.1861C70.1745 84.2905 70.2905 85.395 70.4066 86.4995C68.9904 86.6483 67.5742 86.7972 66.158 86.946C66.2456 87.7794 66.3332 88.6129 66.4208 89.4464C67.8845 89.2925 69.3482 89.1387 70.8117 88.9849C70.9272 90.0826 71.0426 91.1803 71.1579 92.2781ZM71.9303 77.3988C73.1703 77.2686 74.4104 77.1382 75.6504 77.0079C75.8426 78.8374 76.035 80.6669 76.2272 82.4965C77.8264 82.3284 79.4255 82.1604 81.0247 81.9923C80.8323 80.1628 80.6401 78.3332 80.4478 76.5037C81.6878 76.3734 82.9278 76.2431 84.1678 76.1127C84.6805 80.9915 85.1933 85.8702 85.7062 90.749C84.4661 90.8793 83.2261 91.0096 81.986 91.14C81.7802 89.1817 81.5744 87.2234 81.3687 85.2651C79.7695 85.4331 78.1703 85.6013 76.5712 85.7693C76.777 87.7276 76.9828 89.6858 77.1887 91.6441C75.9486 91.7744 74.7086 91.9048 73.4685 92.0351C72.9558 87.1563 72.4431 82.2776 71.9303 77.3988ZM91.4793 83.8119C91.5861 84.8283 91.6929 85.8448 91.7998 86.8612C92.0031 86.8397 92.2064 86.8184 92.4096 86.7971C93.8055 86.6503 94.4551 86.1163 94.3582 85.1947C94.2414 84.0834 93.485 83.6011 92.0891 83.7478C91.8859 83.7692 91.6826 83.7906 91.4793 83.8119ZM88.3971 90.466C87.8842 85.5873 87.3715 80.7086 86.8587 75.83C88.1055 75.6989 89.3522 75.5678 90.599 75.4368C90.7857 77.2121 90.9722 78.9874 91.1588 80.7628C91.4231 80.7349 91.6873 80.7071 91.9516 80.6793C95.5836 80.2977 97.5648 81.6789 97.8952 84.8228C98.0605 86.395 97.6558 87.6296 96.6814 88.5266C95.8204 89.3296 94.5769 89.8166 92.9505 89.9874C91.4328 90.147 89.9149 90.3065 88.3971 90.466ZM103.2365 88.9065C101.9898 89.0375 100.743 89.1685 99.4961 89.2995C98.9833 84.4207 98.4706 79.542 97.9577 74.6632C99.2045 74.5322 100.4514 74.4012 101.6981 74.2703C102.2109 79.149 102.7238 84.0277 103.2365 88.9065Z"></path></svg> 