<?xml version="1.0" encoding="UTF-8"?> <svg xmlns="http://www.w3.org/2000/svg" width="36" height="36" viewBox="0 0 36 36" fill="none"> <g clip-path="url(#clip0_118_2139)"> <path d="M4.5 31.5C4.10218 31.5 3.72064 31.342 3.43934 31.0607C3.15804 30.7794 3 30.3978 3 30V6C3 5.60218 3.15804 5.22064 3.43934 4.93934C3.72064 4.65804 4.10218 4.5 4.5 4.5H15.621L18.621 7.5H30C30.3978 7.5 30.7794 7.65804 31.0607 7.93934C31.342 8.22064 31.5 8.60218 31.5 9V13.5H28.5V10.5H17.379L14.379 7.5H6V25.497L8.25 16.5H33.75L30.285 30.3645C30.2037 30.6889 30.0164 30.9768 29.7528 31.1825C29.4892 31.3882 29.1644 31.5 28.83 31.5H4.5V31.5ZM29.907 19.5H10.593L8.343 28.5H27.657L29.907 19.5Z" fill="#333333"></path> </g> <defs> <clipPath id="clip0_118_2139"> <rect width="36" height="36" fill="white"></rect> </clipPath> </defs> </svg> 