<?xml version="1.0" encoding="UTF-8"?> <svg xmlns="http://www.w3.org/2000/svg" width="36" height="36" viewBox="0 0 36 36" fill="none"> <g clip-path="url(#clip0_118_2050)"> <path d="M31.5 6H10.5C9.70435 6 8.94129 6.31607 8.37868 6.87868C7.81607 7.44129 7.5 8.20435 7.5 9C7.5 9.79565 7.81607 10.5587 8.37868 11.1213C8.94129 11.6839 9.70435 12 10.5 12H31.5V31.5C31.5 31.8978 31.342 32.2794 31.0607 32.5607C30.7794 32.842 30.3978 33 30 33H10.5C8.9087 33 7.38258 32.3679 6.25736 31.2426C5.13214 30.1174 4.5 28.5913 4.5 27V9C4.5 7.4087 5.13214 5.88258 6.25736 4.75736C7.38258 3.63214 8.9087 3 10.5 3H30C30.3978 3 30.7794 3.15804 31.0607 3.43934C31.342 3.72064 31.5 4.10218 31.5 4.5V6ZM7.5 27C7.5 27.7956 7.81607 28.5587 8.37868 29.1213C8.94129 29.6839 9.70435 30 10.5 30H28.5V15H10.5C9.44674 15.0017 8.41175 14.7248 7.5 14.1975V27ZM30 10.5H10.5C10.1022 10.5 9.72064 10.342 9.43934 10.0607C9.15804 9.77936 9 9.39782 9 9C9 8.60218 9.15804 8.22064 9.43934 7.93934C9.72064 7.65804 10.1022 7.5 10.5 7.5H30V10.5Z" fill="#333333"></path> </g> <defs> <clipPath id="clip0_118_2050"> <rect width="36" height="36" fill="white"></rect> </clipPath> </defs> </svg> 