<?xml version="1.0" encoding="UTF-8"?> <svg xmlns="http://www.w3.org/2000/svg" width="36" height="36" viewBox="0 0 36 36" fill="none"> <g clip-path="url(#clip0_118_2136)"> <path d="M31.5 10.1355L28.5 13.1355V6H15V13.5H7.50004V30H28.5V25.8645L31.5 22.8645V31.512C31.4996 31.9068 31.3425 32.2853 31.0632 32.5643C30.7839 32.8433 30.4053 33 30.0105 33H5.98954C5.79255 32.9986 5.59777 32.9585 5.41631 32.8818C5.23484 32.8052 5.07026 32.6935 4.93194 32.5532C4.79363 32.413 4.6843 32.2468 4.61019 32.0643C4.53608 31.8818 4.49865 31.6865 4.50004 31.4895V12L13.5045 3H29.997C30.825 3 31.5 3.6825 31.5 4.488V10.1355ZM32.667 13.2105L34.788 15.333L23.121 27L20.997 26.997L21 24.879L32.667 13.212V13.2105Z" fill="#333333"></path> </g> <defs> <clipPath id="clip0_118_2136"> <rect width="36" height="36" fill="white"></rect> </clipPath> </defs> </svg> 