<?xml version="1.0" encoding="UTF-8"?> <svg xmlns="http://www.w3.org/2000/svg" width="36" height="36" viewBox="0 0 36 36" fill="none"> <g clip-path="url(#clip0_118_1926)"> <path d="M28.5 30H7.5V31.5C7.5 31.8978 7.34196 32.2794 7.06066 32.5607C6.77936 32.842 6.39782 33 6 33H4.5C4.10218 33 3.72064 32.842 3.43934 32.5607C3.15804 32.2794 3 31.8978 3 31.5V20.25L1.1355 19.785C0.81113 19.7037 0.523213 19.5164 0.317483 19.2528C0.111753 18.9892 8.79065e-06 18.6644 0 18.33L0 17.25C0 17.0511 0.0790176 16.8603 0.21967 16.7197C0.360322 16.579 0.551088 16.5 0.75 16.5H3L6.72 7.818C6.95148 7.278 7.33643 6.81786 7.82708 6.49467C8.31773 6.17148 8.89248 5.99948 9.48 6H26.52C27.107 6.00007 27.6811 6.17235 28.1712 6.4955C28.6612 6.81865 29.0457 7.27847 29.277 7.818L33 16.5H35.25C35.4489 16.5 35.6397 16.579 35.7803 16.7197C35.921 16.8603 36 17.0511 36 17.25V18.33C36 18.6644 35.8882 18.9892 35.6825 19.2528C35.4768 19.5164 35.1889 19.7037 34.8645 19.785L33 20.25V31.5C33 31.8978 32.842 32.2794 32.5607 32.5607C32.2794 32.842 31.8978 33 31.5 33H30C29.6022 33 29.2206 32.842 28.9393 32.5607C28.658 32.2794 28.5 31.8978 28.5 31.5V30ZM30 27V19.5H6V27H30ZM8.2155 16.5H27.7845C28.0295 16.4998 28.2707 16.4397 28.4871 16.3248C28.7035 16.2099 28.8884 16.0437 29.0257 15.8408C29.1631 15.6379 29.2486 15.4045 29.2749 15.1609C29.3012 14.9173 29.2674 14.671 29.1765 14.4435L27 9H9L6.8235 14.4435C6.73261 14.671 6.69882 14.9173 6.7251 15.1609C6.75138 15.4045 6.83693 15.6379 6.97426 15.8408C7.11159 16.0437 7.29653 16.2099 7.5129 16.3248C7.72928 16.4397 7.9705 16.4998 8.2155 16.5ZM7.5 21C10.9755 21 13.3185 22.1325 14.529 24.396C14.5902 24.5103 14.6207 24.6385 14.6176 24.7681C14.6145 24.8977 14.5778 25.0243 14.5112 25.1355C14.4445 25.2467 14.3502 25.3387 14.2374 25.4026C14.1246 25.4665 13.9971 25.5001 13.8675 25.5H9C8.60218 25.5 8.22064 25.342 7.93934 25.0607C7.65804 24.7794 7.5 24.3978 7.5 24V21ZM28.5 21V24C28.5 24.3978 28.342 24.7794 28.0607 25.0607C27.7794 25.342 27.3978 25.5 27 25.5H22.1325C22.003 25.4998 21.8757 25.4661 21.7631 25.4021C21.6505 25.3381 21.5564 25.246 21.49 25.1348C21.4235 25.0237 21.387 24.8972 21.3839 24.7677C21.3808 24.6382 21.4114 24.5102 21.4725 24.396C22.68 22.131 25.023 21 28.5 21Z" fill="#333333"></path> </g> <defs> <clipPath id="clip0_118_1926"> <rect width="36" height="36" fill="white"></rect> </clipPath> </defs> </svg> 