<?xml version="1.0" encoding="UTF-8"?> <svg xmlns="http://www.w3.org/2000/svg" width="36" height="36" viewBox="0 0 36 36" fill="none"> <g clip-path="url(#clip0_118_2163)"> <path d="M18 21V24C15.6131 24 13.3239 24.9482 11.636 26.636C9.94821 28.3239 9 30.6131 9 33H6C6 29.8174 7.26428 26.7652 9.51472 24.5147C11.7652 22.2643 14.8174 21 18 21ZM18 19.5C13.0275 19.5 9 15.4725 9 10.5C9 5.5275 13.0275 1.5 18 1.5C22.9725 1.5 27 5.5275 27 10.5C27 15.4725 22.9725 19.5 18 19.5ZM18 16.5C21.315 16.5 24 13.815 24 10.5C24 7.185 21.315 4.5 18 4.5C14.685 4.5 12 7.185 12 10.5C12 13.815 14.685 16.5 18 16.5ZM21.8925 28.218C21.7023 27.4176 21.7023 26.5839 21.8925 25.7835L20.4045 24.924L21.9045 22.326L23.3925 23.1855C23.9897 22.6198 24.7117 22.2026 25.5 21.9675V20.25H28.5V21.9675C29.298 22.2045 30.018 22.6275 30.6075 23.1855L32.0955 22.326L33.5955 24.924L32.1075 25.7835C32.2975 26.5834 32.2975 27.4166 32.1075 28.2165L33.5955 29.076L32.0955 31.674L30.6075 30.8145C30.0103 31.3802 29.2883 31.7974 28.5 32.0325V33.75H25.5V32.0325C24.7117 31.7974 23.9897 31.3802 23.3925 30.8145L21.9045 31.674L20.4045 29.076L21.8925 28.218ZM27 29.25C27.5967 29.25 28.169 29.0129 28.591 28.591C29.0129 28.169 29.25 27.5967 29.25 27C29.25 26.4033 29.0129 25.831 28.591 25.409C28.169 24.9871 27.5967 24.75 27 24.75C26.4033 24.75 25.831 24.9871 25.409 25.409C24.9871 25.831 24.75 26.4033 24.75 27C24.75 27.5967 24.9871 28.169 25.409 28.591C25.831 29.0129 26.4033 29.25 27 29.25Z" fill="#333333"></path> </g> <defs> <clipPath id="clip0_118_2163"> <rect width="36" height="36" fill="white"></rect> </clipPath> </defs> </svg> 