<?xml version="1.0" encoding="UTF-8"?> <svg xmlns="http://www.w3.org/2000/svg" width="36" height="36" viewBox="0 0 36 36" fill="none"> <g clip-path="url(#clip0_118_1875)"> <path d="M16.1379 17.742L27.9114 5.96851L30.0324 8.08951L27.9114 10.212L31.6224 13.923L29.5014 16.0455L25.7889 12.333L23.6679 14.454L26.8494 17.6355L24.7284 19.758L21.5469 16.575L18.2589 19.863C19.2796 21.414 19.6889 23.2884 19.4078 25.1237C19.1266 26.959 18.175 28.6249 16.7368 29.7992C15.2987 30.9735 13.4761 31.5729 11.6217 31.4815C9.76722 31.39 8.01253 30.6142 6.69691 29.304C5.37845 27.9905 4.59545 26.2337 4.50009 24.375C4.40473 22.5164 5.00382 20.6887 6.18093 19.2471C7.35804 17.8056 9.02907 16.8532 10.8693 16.575C12.7094 16.2968 14.5873 16.7128 16.1379 17.742ZM15.1824 27.1815C15.6194 26.7682 15.9691 26.2715 16.2108 25.7207C16.4525 25.1699 16.5813 24.5763 16.5897 23.9748C16.5981 23.3734 16.4858 22.7764 16.2595 22.2191C16.0332 21.6619 15.6974 21.1556 15.2721 20.7303C14.8468 20.305 14.3406 19.9692 13.7833 19.7429C13.226 19.5166 12.629 19.4043 12.0276 19.4127C11.4262 19.4211 10.8325 19.5499 10.2817 19.7916C9.73096 20.0334 9.23423 20.383 8.82091 20.82C8.0012 21.6687 7.54763 22.8054 7.55788 23.9853C7.56813 25.1652 8.04139 26.2939 8.87573 27.1282C9.71007 27.9625 10.8387 28.4358 12.0186 28.446C13.1985 28.4563 14.3352 28.0027 15.1839 27.183L15.1824 27.1815Z" fill="#333333"></path> </g> <defs> <clipPath id="clip0_118_1875"> <rect width="36" height="36" fill="white"></rect> </clipPath> </defs> </svg> 