<?xml version="1.0" encoding="UTF-8"?> <svg xmlns="http://www.w3.org/2000/svg" width="36" height="36" viewBox="0 0 36 36" fill="none"> <g clip-path="url(#clip0_118_2035)"> <path d="M31.5 3V33H28.5V22.5H22.5V12C22.5 9.61305 23.4482 7.32387 25.136 5.63604C26.8239 3.94821 29.1131 3 31.5 3ZM28.5 6.795C27.255 7.5 25.5 9.255 25.5 12V19.5H28.5V6.795ZM13.5 20.85V33H10.5V20.85C8.80621 20.5037 7.28399 19.5831 6.19072 18.2438C5.09745 16.9045 4.50021 15.2288 4.5 13.5V4.5H7.5V15H10.5V4.5H13.5V15H16.5V4.5H19.5V13.5C19.4998 15.2288 18.9026 16.9045 17.8093 18.2438C16.716 19.5831 15.1938 20.5037 13.5 20.85Z" fill="#333333"></path> </g> <defs> <clipPath id="clip0_118_2035"> <rect width="36" height="36" fill="white"></rect> </clipPath> </defs> </svg> 