<?xml version="1.0" encoding="UTF-8"?> <svg xmlns="http://www.w3.org/2000/svg" width="36" height="36" viewBox="0 0 36 36" fill="none"> <g clip-path="url(#clip0_118_2047)"> <path d="M13.5 6H21.669C21.9234 6 22.1736 6.06471 22.3962 6.18804C22.6187 6.31136 22.8062 6.48926 22.941 6.705L28.125 15H34.737C34.8672 14.9999 34.9953 15.0337 35.1085 15.0981C35.2217 15.1625 35.3161 15.2553 35.3826 15.3673C35.449 15.4793 35.4852 15.6067 35.4874 15.737C35.4897 15.8672 35.458 15.9957 35.3955 16.11L29.4555 27H28.5C27.7229 27.0007 26.949 26.9008 26.1975 26.703L30.945 18H5.1L6.672 26.736C5.9614 26.9118 5.23203 27.0005 4.5 27H3.6825L1.8225 16.7685C1.78321 16.5526 1.79179 16.3306 1.84764 16.1184C1.90348 15.9061 2.00523 15.7087 2.1457 15.54C2.28617 15.3714 2.46194 15.2356 2.66061 15.1423C2.85928 15.049 3.07601 15.0004 3.2955 15H4.5V7.5C4.5 7.10218 4.65804 6.72064 4.93934 6.43934C5.22064 6.15804 5.60217 6 6 6H7.5V1.5H13.5V6ZM7.5 15H24.588L20.838 9H7.5V15ZM4.5 30C6.7144 30.0031 8.85161 29.1866 10.5 27.708C12.1484 29.1866 14.2856 30.0031 16.5 30C18.7144 30.0031 20.8516 29.1866 22.5 27.708C24.1484 29.1866 26.2856 30.0031 28.5 30H31.5V33H28.5C26.3935 33.0034 24.3235 32.4497 22.5 31.395C20.6765 32.4497 18.6065 33.0034 16.5 33C14.3935 33.0034 12.3235 32.4497 10.5 31.395C8.67652 32.4497 6.60654 33.0034 4.5 33H1.5V30H4.5Z" fill="#333333"></path> </g> <defs> <clipPath id="clip0_118_2047"> <rect width="36" height="36" fill="white"></rect> </clipPath> </defs> </svg> 