<?xml version="1.0" encoding="UTF-8"?> <svg xmlns="http://www.w3.org/2000/svg" width="36" height="36" viewBox="0 0 36 36" fill="none"> <g clip-path="url(#clip0_118_2053)"> <path d="M19.5 1.5L19.5015 6.093C22.1448 6.42719 24.6019 7.63115 26.4857 9.51527C28.3696 11.3994 29.5732 13.8566 29.907 16.5H34.5V19.5L29.907 19.5015C29.5729 22.1446 28.3691 24.6015 26.4853 26.4853C24.6015 28.3691 22.1446 29.5729 19.5015 29.907L19.5 34.5H16.5V29.907C13.8566 29.5732 11.3994 28.3696 9.51527 26.4857C7.63115 24.6019 6.42719 22.1448 6.093 19.5015L1.5 19.5V16.5H6.093C6.42688 13.8564 7.6307 11.399 9.51485 9.51485C11.399 7.6307 13.8564 6.42688 16.5 6.093V1.5H19.5ZM18 9C15.6131 9 13.3239 9.94821 11.636 11.636C9.94821 13.3239 9 15.6131 9 18C9 20.3869 9.94821 22.6761 11.636 24.364C13.3239 26.0518 15.6131 27 18 27C20.3869 27 22.6761 26.0518 24.364 24.364C26.0518 22.6761 27 20.3869 27 18C27 15.6131 26.0518 13.3239 24.364 11.636C22.6761 9.94821 20.3869 9 18 9ZM18 15C18.7956 15 19.5587 15.3161 20.1213 15.8787C20.6839 16.4413 21 17.2044 21 18C21 18.7956 20.6839 19.5587 20.1213 20.1213C19.5587 20.6839 18.7956 21 18 21C17.2044 21 16.4413 20.6839 15.8787 20.1213C15.3161 19.5587 15 18.7956 15 18C15 17.2044 15.3161 16.4413 15.8787 15.8787C16.4413 15.3161 17.2044 15 18 15Z" fill="#333333"></path> </g> <defs> <clipPath id="clip0_118_2053"> <rect width="36" height="36" fill="white"></rect> </clipPath> </defs> </svg> 