<?xml version="1.0" encoding="UTF-8"?> <svg xmlns="http://www.w3.org/2000/svg" width="36" height="36" viewBox="0 0 36 36" fill="none"> <g clip-path="url(#clip0_118_1923)"> <path d="M6 6H12V9H6V6ZM24 28.5H30V31.5H24V28.5ZM3 13.5H10.5V16.5H3V13.5ZM13.5 13.5H18V16.5H13.5V13.5ZM21 13.5H30V16.5H21V13.5ZM6 21H15V24H6V21ZM18 21H22.5V24H18V21ZM25.5 21H33V24H25.5V21ZM15 6H33V9H15V6ZM3 28.5H21V31.5H3V28.5Z" fill="#333333"></path> </g> <defs> <clipPath id="clip0_118_1923"> <rect width="36" height="36" fill="white"></rect> </clipPath> </defs> </svg> 