<?xml version="1.0" encoding="UTF-8"?> <svg xmlns="http://www.w3.org/2000/svg" width="36" height="36" viewBox="0 0 36 36" fill="none"> <g clip-path="url(#clip0_118_2029)"> <path d="M13.605 10.5L9 17.409V30H27V10.5H13.605ZM12 7.5H28.5C28.8978 7.5 29.2794 7.65804 29.5607 7.93934C29.842 8.22064 30 8.60218 30 9V31.5C30 31.8978 29.842 32.2794 29.5607 32.5607C29.2794 32.842 28.8978 33 28.5 33H7.5C7.10218 33 6.72064 32.842 6.43934 32.5607C6.15804 32.2794 6 31.8978 6 31.5V16.5L12 7.5ZM19.5 1.5H27C27.3978 1.5 27.7794 1.65804 28.0607 1.93934C28.342 2.22064 28.5 2.60218 28.5 3V6H18V3C18 2.60218 18.158 2.22064 18.4393 1.93934C18.7206 1.65804 19.1022 1.5 19.5 1.5ZM12 18H15V27H12V18Z" fill="#333333"></path> </g> <defs> <clipPath id="clip0_118_2029"> <rect width="36" height="36" fill="white"></rect> </clipPath> </defs> </svg> 