<?xml version="1.0" encoding="UTF-8"?> <svg xmlns="http://www.w3.org/2000/svg" width="36" height="36" viewBox="0 0 36 36" fill="none"> <g clip-path="url(#clip0_118_1935)"> <path d="M27.0004 25.5V33H24.0004V25.5C24.0004 18.8235 27.9664 13.0725 33.6709 10.476L34.9129 13.206C32.553 14.2794 30.5519 16.0094 29.1488 18.1895C27.7457 20.3695 26.9999 22.9074 27.0004 25.5ZM12.0004 25.5V33H9.00039V25.5C9.00061 22.9077 8.25463 20.3701 6.85154 18.1904C5.44846 16.0106 3.44758 14.2808 1.08789 13.2075L2.32989 10.476C5.21392 11.7877 7.6594 13.9019 9.37422 16.5661C11.0891 19.2302 12.0007 22.3317 12.0004 25.5ZM18.0004 18C16.0113 18 14.1036 17.2098 12.6971 15.8033C11.2906 14.3968 10.5004 12.4891 10.5004 10.5C10.5004 8.51088 11.2906 6.60322 12.6971 5.1967C14.1036 3.79018 16.0113 3 18.0004 3C19.9895 3 21.8972 3.79018 23.3037 5.1967C24.7102 6.60322 25.5004 8.51088 25.5004 10.5C25.5004 12.4891 24.7102 14.3968 23.3037 15.8033C21.8972 17.2098 19.9895 18 18.0004 18ZM18.0004 15C18.5913 15 19.1765 14.8836 19.7225 14.6575C20.2684 14.4313 20.7645 14.0998 21.1824 13.682C21.6002 13.2641 21.9317 12.768 22.1578 12.2221C22.384 11.6761 22.5004 11.0909 22.5004 10.5C22.5004 9.90905 22.384 9.32389 22.1578 8.77792C21.9317 8.23196 21.6002 7.73588 21.1824 7.31802C20.7645 6.90016 20.2684 6.56869 19.7225 6.34254C19.1765 6.1164 18.5913 6 18.0004 6C16.8069 6 15.6623 6.47411 14.8184 7.31802C13.9745 8.16193 13.5004 9.30653 13.5004 10.5C13.5004 11.6935 13.9745 12.8381 14.8184 13.682C15.6623 14.5259 16.8069 15 18.0004 15Z" fill="#333333"></path> </g> <defs> <clipPath id="clip0_118_1935"> <rect width="36" height="36" fill="white"></rect> </clipPath> </defs> </svg> 