<?xml version="1.0" encoding="UTF-8"?> <svg xmlns="http://www.w3.org/2000/svg" width="36" height="36" viewBox="0 0 36 36" fill="none"> <g clip-path="url(#clip0_118_1917)"> <path d="M4.74108 6.7035C6.48117 4.96309 8.81507 3.94513 11.2745 3.85388C13.7339 3.76262 16.1368 4.60483 18.0011 6.2115C19.8637 4.60751 22.2635 3.76625 24.7199 3.85615C27.1763 3.94604 29.5082 4.96046 31.2486 6.69631C32.989 8.43216 34.0095 10.7613 34.1058 13.2175C34.2022 15.6737 33.3672 18.0757 31.7681 19.9425L20.1206 31.6275C19.5854 32.1628 18.8677 32.4761 18.1114 32.5044C17.355 32.5328 16.6158 32.2742 16.0421 31.7805L15.8771 31.629L4.23108 19.9425C2.63281 18.0773 1.79745 15.6776 1.892 13.2231C1.98655 10.7686 3.00405 8.44022 4.74108 6.7035ZM6.86208 8.8245C5.63544 10.0515 4.92836 11.7037 4.88758 13.4382C4.8468 15.1726 5.47546 16.8562 6.64308 18.1395L6.86208 18.3705L17.9996 29.508L25.9541 21.552L20.6516 16.2495L19.0616 17.8395C18.6438 18.2575 18.1477 18.5891 17.6018 18.8154C17.0558 19.0417 16.4706 19.1582 15.8796 19.1584C14.6861 19.1587 13.5413 18.6848 12.6971 17.841C11.8529 16.9972 11.3785 15.8526 11.3782 14.6591C11.3779 13.4655 11.8518 12.3207 12.6956 11.4765L15.8486 8.322C14.5938 7.32056 13.0232 6.79904 11.4186 6.85099C9.81402 6.90295 8.28046 7.52499 7.09308 8.6055L6.86208 8.8245ZM19.5911 13.0665C19.8724 12.7853 20.2538 12.6273 20.6516 12.6273C21.0493 12.6273 21.4308 12.7853 21.7121 13.0665L28.0751 19.4295L29.1371 18.3705C30.3843 17.1242 31.0943 15.4394 31.1153 13.6763C31.1364 11.9133 30.4667 10.212 29.2496 8.93633C28.0325 7.66064 26.3646 6.91181 24.6025 6.84998C22.8404 6.78816 21.1241 7.41825 19.8206 8.6055L19.5911 8.8245L14.8181 13.5975C14.5581 13.8573 14.4025 14.2036 14.381 14.5705C14.3594 14.9374 14.4733 15.2995 14.7011 15.588L14.8181 15.7185C15.0779 15.9785 15.4241 16.134 15.7911 16.1556C16.158 16.1772 16.5201 16.0633 16.8086 15.8355L16.9391 15.7185L19.5911 13.0665Z" fill="#333333"></path> </g> <defs> <clipPath id="clip0_118_1917"> <rect width="36" height="36" fill="white"></rect> </clipPath> </defs> </svg> 