<?xml version="1.0" encoding="UTF-8"?> <svg xmlns="http://www.w3.org/2000/svg" width="36" height="36" viewBox="0 0 36 36" fill="none"> <g clip-path="url(#clip0_118_2026)"> <path d="M6 24V6H3V3H7.5C7.89782 3 8.27936 3.15804 8.56066 3.43934C8.84196 3.72064 9 4.10218 9 4.5V22.5H27.657L30.657 10.5H12V7.5H32.58C32.808 7.50001 33.033 7.55199 33.2379 7.652C33.4428 7.75202 33.6222 7.89743 33.7625 8.07718C33.9028 8.25693 34.0002 8.4663 34.0474 8.68937C34.0947 8.91243 34.0904 9.14333 34.035 9.3645L30.285 24.3645C30.2037 24.6889 30.0164 24.9768 29.7528 25.1825C29.4892 25.3882 29.1644 25.5 28.83 25.5H7.5C7.10218 25.5 6.72064 25.342 6.43934 25.0607C6.15804 24.7794 6 24.3978 6 24ZM9 34.5C8.20435 34.5 7.44129 34.1839 6.87868 33.6213C6.31607 33.0587 6 32.2956 6 31.5C6 30.7044 6.31607 29.9413 6.87868 29.3787C7.44129 28.8161 8.20435 28.5 9 28.5C9.79565 28.5 10.5587 28.8161 11.1213 29.3787C11.6839 29.9413 12 30.7044 12 31.5C12 32.2956 11.6839 33.0587 11.1213 33.6213C10.5587 34.1839 9.79565 34.5 9 34.5ZM27 34.5C26.2044 34.5 25.4413 34.1839 24.8787 33.6213C24.3161 33.0587 24 32.2956 24 31.5C24 30.7044 24.3161 29.9413 24.8787 29.3787C25.4413 28.8161 26.2044 28.5 27 28.5C27.7956 28.5 28.5587 28.8161 29.1213 29.3787C29.6839 29.9413 30 30.7044 30 31.5C30 32.2956 29.6839 33.0587 29.1213 33.6213C28.5587 34.1839 27.7956 34.5 27 34.5Z" fill="#333333"></path> </g> <defs> <clipPath id="clip0_118_2026"> <rect width="36" height="36" fill="white"></rect> </clipPath> </defs> </svg> 