<?xml version="1.0" encoding="UTF-8"?> <svg xmlns="http://www.w3.org/2000/svg" width="80" height="80" viewBox="0 0 80 80" fill="none"> <rect width="80" height="80" rx="40" fill="#BB916B"></rect> <g clip-path="url(#clip0_101_320)"> <path d="M55.75 47.735V53.923C55.7502 54.3661 55.5823 54.7927 55.2803 55.1168C54.9782 55.441 54.5645 55.6385 54.1225 55.6695C53.3577 55.722 52.733 55.75 52.25 55.75C36.7852 55.75 24.25 43.2148 24.25 27.75C24.25 27.267 24.2763 26.6423 24.3305 25.8775C24.3615 25.4355 24.559 25.0218 24.8832 24.7197C25.2073 24.4177 25.6339 24.2498 26.077 24.25H32.265C32.4821 24.2498 32.6915 24.3303 32.8525 24.4758C33.0136 24.6213 33.1148 24.8215 33.1365 25.0375C33.1768 25.44 33.2135 25.7603 33.2485 26.0035C33.5963 28.4306 34.309 30.7912 35.3625 33.0053C35.5288 33.3553 35.4202 33.7735 35.1053 33.9975L31.3288 36.696C33.6378 42.0763 37.9255 46.364 43.3057 48.673L46.0007 44.9035C46.1109 44.7495 46.2716 44.639 46.4549 44.5914C46.6381 44.5437 46.8323 44.5619 47.0035 44.6427C49.2173 45.6943 51.5773 46.4052 54.0035 46.7515C54.2468 46.7865 54.567 46.825 54.966 46.8635C55.1817 46.8856 55.3814 46.987 55.5266 47.148C55.6718 47.309 55.752 47.5182 55.7517 47.735H55.75Z" fill="white"></path> </g> <defs> <clipPath id="clip0_101_320"> <rect width="42" height="42" fill="white" transform="translate(19 19)"></rect> </clipPath> </defs> </svg> 