<?xml version="1.0" encoding="UTF-8"?> <svg xmlns="http://www.w3.org/2000/svg" width="36" height="36" viewBox="0 0 36 36" fill="none"> <g clip-path="url(#clip0_118_2160)"> <path d="M26.7615 23.4885L27.0255 23.754L27.2925 23.4885C27.6059 23.1751 27.978 22.9265 28.3874 22.7569C28.7969 22.5873 29.2358 22.5 29.679 22.5C30.1222 22.5 30.5611 22.5873 30.9706 22.7569C31.38 22.9265 31.7521 23.1751 32.0655 23.4885C32.3789 23.8019 32.6275 24.174 32.7971 24.5834C32.9667 24.9929 33.054 25.4318 33.054 25.875C33.054 26.3182 32.9667 26.7571 32.7971 27.1666C32.6275 27.576 32.3789 27.9481 32.0655 28.2615L27.0255 33.3L21.9885 28.2615C21.3556 27.6286 21 26.7701 21 25.875C21 24.9799 21.3556 24.1214 21.9885 23.4885C22.6214 22.8556 23.4799 22.5 24.375 22.5C25.2701 22.5 26.1286 22.8556 26.7615 23.4885ZM18 21V24C15.6131 24 13.3239 24.9482 11.636 26.636C9.94821 28.3239 9 30.6131 9 33H6C6.00004 29.8824 7.21341 26.8871 9.3832 24.6484C11.553 22.4098 14.5089 21.1034 17.625 21.006L18 21ZM18 1.5C22.9725 1.5 27 5.5275 27 10.5C27.0008 12.8288 26.0986 15.0672 24.4831 16.7445C22.8676 18.4218 20.6647 19.4074 18.3375 19.494L18 19.5C13.0275 19.5 9 15.4725 9 10.5C8.99917 8.17121 9.90135 5.93281 11.5169 4.25548C13.1324 2.57816 15.3353 1.59258 17.6625 1.506L18 1.5ZM18 4.5C14.685 4.5 12 7.185 12 10.5C12 13.815 14.685 16.5 18 16.5C21.315 16.5 24 13.815 24 10.5C24 7.185 21.315 4.5 18 4.5Z" fill="#333333"></path> </g> <defs> <clipPath id="clip0_118_2160"> <rect width="36" height="36" fill="white"></rect> </clipPath> </defs> </svg> 