<?xml version="1.0" encoding="UTF-8"?> <svg xmlns="http://www.w3.org/2000/svg" width="36" height="36" viewBox="0 0 36 36" fill="none"> <g clip-path="url(#clip0_118_2056)"> <path d="M16.5 26.907C13.4741 26.522 10.7083 24.9992 8.76478 22.6482C6.82128 20.2971 5.84592 17.2943 6.03693 14.25C6.22794 11.2056 7.571 8.34823 9.79312 6.25857C12.0152 4.16891 14.9497 3.00378 18 3C21.0541 2.99773 23.9941 4.16001 26.221 6.25002C28.4479 8.34003 29.7941 11.2005 29.9854 14.2486C30.1766 17.2966 29.1985 20.3029 27.2503 22.6549C25.3021 25.0069 22.5304 26.5275 19.5 26.907V30.018C25.419 30.156 30 31.1025 30 32.25C30 33.492 24.627 34.5 18 34.5C11.373 34.5 6 33.492 6 32.25C6 31.1025 10.581 30.156 16.5 30.018V26.907ZM18 24C20.3869 24 22.6761 23.0518 24.364 21.364C26.0518 19.6761 27 17.387 27 15C27 12.6131 26.0518 10.3239 24.364 8.63604C22.6761 6.94822 20.3869 6 18 6C15.6131 6 13.3239 6.94822 11.636 8.63604C9.94821 10.3239 9 12.6131 9 15C9 17.387 9.94821 19.6761 11.636 21.364C13.3239 23.0518 15.6131 24 18 24ZM18 18C17.2044 18 16.4413 17.6839 15.8787 17.1213C15.3161 16.5587 15 15.7957 15 15C15 14.2044 15.3161 13.4413 15.8787 12.8787C16.4413 12.3161 17.2044 12 18 12C18.7956 12 19.5587 12.3161 20.1213 12.8787C20.6839 13.4413 21 14.2044 21 15C21 15.7957 20.6839 16.5587 20.1213 17.1213C19.5587 17.6839 18.7956 18 18 18Z" fill="#333333"></path> </g> <defs> <clipPath id="clip0_118_2056"> <rect width="36" height="36" fill="white"></rect> </clipPath> </defs> </svg> 