<?xml version="1.0" encoding="UTF-8"?> <svg xmlns="http://www.w3.org/2000/svg" width="36" height="36" viewBox="0 0 36 36" fill="none"> <g clip-path="url(#clip0_118_1878)"> <path d="M4.5 4.5H31.5C31.8978 4.5 32.2794 4.65804 32.5607 4.93934C32.842 5.22064 33 5.60218 33 6V30C33 30.3978 32.842 30.7794 32.5607 31.0607C32.2794 31.342 31.8978 31.5 31.5 31.5H4.5C4.10218 31.5 3.72064 31.342 3.43934 31.0607C3.15804 30.7794 3 30.3978 3 30V6C3 5.60218 3.15804 5.22064 3.43934 4.93934C3.72064 4.65804 4.10218 4.5 4.5 4.5ZM30 16.5H6V28.5H30V16.5ZM30 13.5V7.5H6V13.5H30ZM21 22.5H27V25.5H21V22.5Z" fill="#333333"></path> </g> <defs> <clipPath id="clip0_118_1878"> <rect width="36" height="36" fill="white"></rect> </clipPath> </defs> </svg> 