<?xml version="1.0" encoding="UTF-8"?> <svg xmlns="http://www.w3.org/2000/svg" width="36" height="36" viewBox="0 0 36 36" fill="none"> <g clip-path="url(#clip0_118_2157)"> <path d="M6 12H30V31.5C30 31.8978 29.842 32.2794 29.5607 32.5607C29.2794 32.842 28.8978 33 28.5 33H7.5C7.10218 33 6.72064 32.842 6.43934 32.5607C6.15804 32.2794 6 31.8978 6 31.5V12ZM9 15V30H27V15H9ZM13.5 18H16.5V27H13.5V18ZM19.5 18H22.5V27H19.5V18ZM10.5 7.5V4.5C10.5 4.10218 10.658 3.72064 10.9393 3.43934C11.2206 3.15804 11.6022 3 12 3H24C24.3978 3 24.7794 3.15804 25.0607 3.43934C25.342 3.72064 25.5 4.10218 25.5 4.5V7.5H33V10.5H3V7.5H10.5ZM13.5 6V7.5H22.5V6H13.5Z" fill="#333333"></path> </g> <defs> <clipPath id="clip0_118_2157"> <rect width="36" height="36" fill="white"></rect> </clipPath> </defs> </svg> 