<?xml version="1.0" encoding="UTF-8"?> <svg xmlns="http://www.w3.org/2000/svg" width="36" height="36" viewBox="0 0 36 36" fill="none"> <g clip-path="url(#clip0_118_1920)"> <path d="M25.5 13.8L33.3195 8.325C33.4319 8.24618 33.5639 8.19975 33.7009 8.19075C33.8379 8.18176 33.9747 8.21055 34.0965 8.27399C34.2183 8.33743 34.3203 8.43309 34.3915 8.55053C34.4626 8.66797 34.5002 8.80269 34.5 8.94V27.06C34.5002 27.1973 34.4626 27.332 34.3915 27.4495C34.3203 27.5669 34.2183 27.6626 34.0965 27.726C33.9747 27.7894 33.8379 27.8182 33.7009 27.8092C33.5639 27.8003 33.4319 27.7538 33.3195 27.675L25.5 22.2V28.5C25.5 28.8978 25.342 29.2794 25.0607 29.5607C24.7794 29.842 24.3978 30 24 30H3C2.60218 30 2.22064 29.842 1.93934 29.5607C1.65804 29.2794 1.5 28.8978 1.5 28.5V7.5C1.5 7.10218 1.65804 6.72064 1.93934 6.43934C2.22064 6.15804 2.60218 6 3 6H24C24.3978 6 24.7794 6.15804 25.0607 6.43934C25.342 6.72064 25.5 7.10218 25.5 7.5V13.8ZM25.5 18.5385L31.5 22.7385V13.26L25.5 17.46V18.537V18.5385ZM4.5 9V27H22.5V9H4.5ZM7.5 12H10.5V15H7.5V12Z" fill="#333333"></path> </g> <defs> <clipPath id="clip0_118_1920"> <rect width="36" height="36" fill="white"></rect> </clipPath> </defs> </svg> 