<?xml version="1.0" encoding="UTF-8"?> <svg xmlns="http://www.w3.org/2000/svg" width="36" height="36" viewBox="0 0 36 36" fill="none"> <g clip-path="url(#clip0_118_1929)"> <path d="M9 4.5C14.235 4.5 18.5745 8.331 19.3695 13.3425C21.132 11.586 23.565 10.5 26.25 10.5H33V14.25C33 19.635 28.635 24 23.25 24H19.5V31.5H16.5V19.5H13.5C7.701 19.5 3 14.799 3 9V4.5H9ZM30 13.5H26.25C22.5225 13.5 19.5 16.5225 19.5 20.25V21H23.25C26.9775 21 30 17.9775 30 14.25V13.5ZM9 7.5H6V9C6 13.1415 9.3585 16.5 13.5 16.5H16.5V15C16.5 10.8585 13.1415 7.5 9 7.5Z" fill="#333333"></path> </g> <defs> <clipPath id="clip0_118_1929"> <rect width="36" height="36" fill="white"></rect> </clipPath> </defs> </svg> 