<?xml version="1.0" encoding="UTF-8"?> <svg xmlns="http://www.w3.org/2000/svg" width="36" height="36" viewBox="0 0 36 36" fill="none"> <g clip-path="url(#clip0_118_2032)"> <path d="M29.6671 6.33314C33.1816 9.84764 33.1816 15.5461 29.6671 19.0606L19.0621 29.6671C15.5461 33.1816 9.84764 33.1816 6.33314 29.6671C2.81864 26.1526 2.81864 20.4541 6.33314 16.9396L16.9381 6.33314C20.4541 2.81864 26.1526 2.81864 29.6671 6.33314ZM21.1831 23.3026L12.6976 14.8171L8.45414 19.0621C6.11114 21.4036 6.11114 25.2031 8.45414 27.5461C10.7971 29.8891 14.5966 29.8891 16.9396 27.5461L21.1831 23.3011V23.3026ZM27.5461 8.45414C25.2031 6.11114 21.4036 6.11114 19.0606 8.45414L14.8201 12.6961L23.3056 21.1816L27.5476 16.9396C29.8906 14.5966 29.8906 10.7971 27.5476 8.45414H27.5461Z" fill="#333333"></path> </g> <defs> <clipPath id="clip0_118_2032"> <rect width="36" height="36" fill="white"></rect> </clipPath> </defs> </svg> 