<?xml version="1.0" encoding="UTF-8"?> <svg xmlns="http://www.w3.org/2000/svg" width="36" height="36" viewBox="0 0 36 36" fill="none"> <g clip-path="url(#clip0_118_1884)"> <path d="M4.5 28.5V8.54999C4.49991 8.24208 4.59458 7.9416 4.77115 7.68935C4.94773 7.4371 5.19766 7.2453 5.487 7.14L19.9935 1.866C20.1068 1.82475 20.2284 1.81144 20.348 1.8272C20.4675 1.84295 20.5815 1.88729 20.6803 1.95648C20.779 2.02566 20.8597 2.11764 20.9153 2.22461C20.971 2.33159 21 2.45041 21 2.571V10.0005L30.474 13.158C30.7728 13.2575 31.0327 13.4486 31.2169 13.7041C31.401 13.9596 31.5001 14.2665 31.5 14.5815V28.5H34.5V31.5H1.5V28.5H4.5ZM7.5 28.5H18V5.7825L7.5 9.6015V28.5ZM28.5 28.5V15.663L21 13.1625V28.5H28.5Z" fill="#333333"></path> </g> <defs> <clipPath id="clip0_118_1884"> <rect width="36" height="36" fill="white"></rect> </clipPath> </defs> </svg> 