<?xml version="1.0" encoding="UTF-8"?> <svg xmlns="http://www.w3.org/2000/svg" viewBox="0 0 146.00 146.00" data-guides="{&quot;vertical&quot;:[],&quot;horizontal&quot;:[]}"><defs></defs><path fill="#8ed5f0" stroke="none" fill-opacity="1" stroke-width="1" stroke-opacity="1" id="tSvge944d351f8" title="Path 1" d="M72.2766 0.412C72.7248 0.1563 73.2749 0.1563 73.7232 0.412C75.116 1.2063 76.5088 2.0008 77.9015 2.7951C78.2796 3.0107 78.7339 3.0465 79.141 2.8927C80.6409 2.3259 82.1407 1.7592 83.6406 1.1925C84.1235 1.0101 84.6667 1.0961 85.0696 1.4188C86.3209 2.4213 87.5723 3.4238 88.8236 4.4262C89.1631 4.6983 89.6064 4.8047 90.0324 4.7165C91.6025 4.3914 93.1726 4.0662 94.7427 3.7411C95.2482 3.6365 95.7712 3.8065 96.1185 4.1882C97.1977 5.3741 98.2769 6.5599 99.356 7.7458C99.6489 8.0676 100.0699 8.2421 100.5046 8.2216C102.1062 8.1461 103.7078 8.0707 105.3095 7.9951C105.825 7.9708 106.3151 8.2206 106.5985 8.6519C107.4788 9.9921 108.3592 11.3321 109.2394 12.6722C109.4784 13.0359 109.8669 13.2741 110.2994 13.3218C111.8932 13.4978 113.4869 13.6738 115.0807 13.8498C115.5935 13.9065 116.0386 14.2297 116.251 14.7002C116.9109 16.1615 117.5707 17.6229 118.2306 19.0841C118.4096 19.4806 118.7562 19.7766 119.1759 19.8915C120.7225 20.3146 122.269 20.7378 123.8156 21.1609C124.3134 21.2971 124.7024 21.686 124.8386 22.1839C125.2617 23.7304 125.6848 25.2769 126.1079 26.8234C126.2228 27.2432 126.5188 27.5898 126.9152 27.7688C128.3766 28.4287 129.8379 29.0886 131.2992 29.7484C131.7697 29.9609 132.093 30.4058 132.1497 30.9188C132.3256 32.5125 132.5016 34.1063 132.6777 35.7C132.7253 36.1324 132.9635 36.5211 133.3272 36.7599C134.6672 37.6403 136.0074 38.5206 137.3474 39.401C137.7789 39.6843 138.0285 40.1745 138.0043 40.6899C137.9289 42.2916 137.8533 43.8933 137.7779 45.4949C137.7572 45.9295 137.9317 46.3506 138.2535 46.6434C139.4394 47.7226 140.6254 48.8017 141.8112 49.8808C142.1929 50.2281 142.363 50.7513 142.2583 51.2568C141.9332 52.8268 141.6082 54.3969 141.283 55.967C141.1947 56.393 141.3011 56.8363 141.5731 57.1757C142.5756 58.4271 143.5781 59.6785 144.5806 60.9298C144.9033 61.3326 144.9894 61.8759 144.8069 62.3587C144.2401 63.8586 143.6734 65.3585 143.1067 66.8585C142.953 67.2655 142.9887 67.7199 143.2044 68.0978C143.9987 69.4906 144.7931 70.8835 145.5874 72.2763C145.8432 72.7245 145.8432 73.2746 145.5874 73.7228C144.7931 75.1156 143.9987 76.5084 143.2044 77.9012C142.9887 78.2792 142.953 78.7336 143.1067 79.1406C143.6734 80.6406 144.2401 82.1404 144.8069 83.6403C144.9894 84.1231 144.9033 84.6664 144.5806 85.0693C143.5781 86.3206 142.5756 87.572 141.5731 88.8233C141.3011 89.1628 141.1947 89.6061 141.283 90.032C141.6082 91.6022 141.9332 93.1723 142.2583 94.7423C142.363 95.2478 142.1929 95.7708 141.8112 96.1182C140.6254 97.1974 139.4394 98.2765 138.2535 99.3556C137.9317 99.6485 137.7572 100.0696 137.7779 100.5042C137.8533 102.1058 137.9289 103.7074 138.0043 105.3091C138.0285 105.8246 137.7789 106.3147 137.3474 106.5981C136.0074 107.4784 134.6672 108.3588 133.3272 109.2391C132.9635 109.478 132.7253 109.8666 132.6777 110.2991C132.5016 111.8928 132.3256 113.4866 132.1497 115.0803C132.093 115.5932 131.7697 116.0382 131.2992 116.2507C129.8379 116.9105 128.3766 117.5704 126.9152 118.2302C126.5188 118.4092 126.2228 118.7558 126.1079 119.1756C125.6848 120.7221 125.2617 122.2686 124.8386 123.8152C124.7024 124.313 124.3134 124.702 123.8156 124.8382C122.269 125.2613 120.7225 125.6844 119.1759 126.1075C118.7562 126.2225 118.4096 126.5184 118.2306 126.9149C117.5707 128.3762 116.9109 129.8375 116.251 131.2989C116.0386 131.7693 115.5935 132.0927 115.0807 132.1494C113.4869 132.3253 111.8932 132.5013 110.2994 132.6773C109.8669 132.725 109.4784 132.9632 109.2394 133.3268C108.3592 134.6669 107.4788 136.007 106.5985 137.3471C106.3151 137.7785 105.825 138.0281 105.3095 138.004C103.7078 137.9285 102.1062 137.8529 100.5046 137.7775C100.0699 137.7569 99.6489 137.9314 99.356 138.2532C98.2769 139.439 97.1977 140.625 96.1185 141.8109C95.7712 142.1925 95.2482 142.3626 94.7427 142.258C93.1726 141.9329 91.6025 141.6078 90.0324 141.2826C89.6064 141.1943 89.1631 141.3008 88.8236 141.5728C87.5723 142.5753 86.3209 143.5778 85.0696 144.5803C84.6667 144.9029 84.1235 144.9891 83.6406 144.8065C82.1407 144.2398 80.6409 143.673 79.141 143.1064C78.7339 142.9526 78.2796 142.9884 77.9015 143.204C76.5088 143.9983 75.116 144.7927 73.7232 145.5871C73.2749 145.8428 72.7248 145.8428 72.2766 145.5871C70.8838 144.7927 69.491 143.9983 68.0982 143.204C67.7202 142.9884 67.2659 142.9526 66.8588 143.1064C65.3589 143.673 63.859 144.2398 62.3591 144.8065C61.8762 144.9891 61.333 144.9029 60.9302 144.5803C59.6789 143.5778 58.4275 142.5753 57.1761 141.5728C56.8367 141.3008 56.3934 141.1943 55.9673 141.2826C54.3973 141.6078 52.8272 141.9329 51.2571 142.258C50.7516 142.3626 50.2285 142.1925 49.8812 141.8109C48.8021 140.625 47.7229 139.439 46.6437 138.2532C46.3509 137.9314 45.9299 137.7569 45.4952 137.7775C43.8936 137.8529 42.2919 137.9285 40.6903 138.004C40.1748 138.0281 39.6846 137.7785 39.4013 137.3471C38.5209 136.007 37.6406 134.6669 36.7602 133.3268C36.5214 132.9632 36.1328 132.725 35.7004 132.6773C34.1066 132.5013 32.5129 132.3253 30.9191 132.1494C30.4062 132.0927 29.9612 131.7693 29.7488 131.2989C29.0889 129.8375 28.4291 128.3762 27.7692 126.9149C27.5901 126.5184 27.2436 126.2225 26.8238 126.1075C25.2773 125.6844 23.7307 125.2613 22.1842 124.8382C21.6863 124.702 21.2974 124.313 21.1612 123.8152C20.7381 122.2686 20.3149 120.7221 19.8918 119.1756C19.777 118.7558 19.481 118.4092 19.0844 118.2302C17.6232 117.5704 16.1619 116.9105 14.7006 116.2507C14.2301 116.0382 13.9069 115.5932 13.8502 115.0803C13.6742 113.4866 13.4982 111.8928 13.3221 110.2991C13.2745 109.8666 13.0363 109.478 12.6726 109.2391C11.3325 108.3588 9.9924 107.4784 8.6523 106.5981C8.2209 106.3147 7.9712 105.8246 7.9955 105.3091C8.071 103.7074 8.1465 102.1058 8.2219 100.5042C8.2425 100.0696 8.068 99.6485 7.7462 99.3556C6.5603 98.2765 5.3744 97.1974 4.1886 96.1182C3.8068 95.7708 3.6368 95.2478 3.7415 94.7423C4.0666 93.1723 4.3917 91.6022 4.7168 90.032C4.805 89.6061 4.6986 89.1628 4.4266 88.8233C3.4242 87.572 2.4217 86.3206 1.4192 85.0693C1.0964 84.6664 1.0105 84.1231 1.1928 83.6403C1.7596 82.1404 2.3263 80.6406 2.893 79.1406C3.0468 78.7336 3.0111 78.2792 2.7954 77.9012C2.0011 76.5084 1.2067 75.1156 0.4124 73.7228C0.1566 73.2746 0.1566 72.7245 0.4124 72.2763C1.2067 70.8835 2.0011 69.4906 2.7954 68.0978C3.0111 67.7199 3.0468 67.2655 2.893 66.8585C2.3263 65.3585 1.7596 63.8586 1.1928 62.3587C1.0105 61.8759 1.0964 61.3326 1.4192 60.9298C2.4217 59.6785 3.4242 58.4271 4.4266 57.1757C4.6986 56.8363 4.805 56.393 4.7168 55.967C4.3917 54.3969 4.0666 52.8268 3.7415 51.2568C3.6368 50.7513 3.8068 50.2281 4.1886 49.8808C5.3744 48.8017 6.5603 47.7226 7.7462 46.6434C8.068 46.3506 8.2425 45.9295 8.2219 45.4949C8.1465 43.8933 8.071 42.2916 7.9955 40.6899C7.9712 40.1745 8.2209 39.6843 8.6523 39.401C9.9924 38.5206 11.3325 37.6403 12.6726 36.7599C13.0363 36.5211 13.2745 36.1324 13.3221 35.7C13.4982 34.1063 13.6742 32.5125 13.8502 30.9188C13.9069 30.4058 14.2301 29.9609 14.7006 29.7484C16.1619 29.0886 17.6232 28.4287 19.0844 27.7688C19.481 27.5898 19.777 27.2432 19.8918 26.8234C20.3149 25.2769 20.7381 23.7304 21.1612 22.1839C21.2974 21.686 21.6863 21.2971 22.1842 21.1609C23.7307 20.7378 25.2773 20.3146 26.8238 19.8915C27.2436 19.7766 27.5901 19.4806 27.7692 19.0841C28.4291 17.6229 29.0889 16.1615 29.7488 14.7002C29.9612 14.2297 30.4062 13.9065 30.9191 13.8498C32.5129 13.6738 34.1066 13.4978 35.7004 13.3218C36.1328 13.2741 36.5214 13.0359 36.7602 12.6722C37.6406 11.3321 38.5209 9.9921 39.4013 8.6519C39.6846 8.2206 40.1748 7.9708 40.6903 7.9951C42.2919 8.0707 43.8936 8.1461 45.4952 8.2216C45.9299 8.2421 46.3509 8.0676 46.6437 7.7458C47.7229 6.5599 48.8021 5.3741 49.8812 4.1882C50.2285 3.8065 50.7516 3.6365 51.2571 3.7411C52.8272 4.0662 54.3973 4.3914 55.9673 4.7165C56.3934 4.8047 56.8367 4.6983 57.1761 4.4262C58.4275 3.4238 59.6789 2.4213 60.9302 1.4188C61.333 1.0961 61.8762 1.0101 62.3591 1.1925C63.859 1.7592 65.3589 2.3259 66.8588 2.8927C67.2659 3.0465 67.7202 3.0107 68.0982 2.7951C69.491 2.0008 70.8838 1.2063 72.2766 0.412Z"></path><path fill="white" stroke="none" fill-opacity="1" stroke-width="1" stroke-opacity="1" id="tSvg141bb827109" title="Path 2" d="M32.1042 56.6279C33.3442 56.4976 34.5841 56.3672 35.8241 56.2368C36.0165 58.0663 36.2088 59.8959 36.4012 61.7254C38.0003 61.5573 39.5994 61.3893 41.1985 61.2212C41.0062 59.3917 40.8139 57.5622 40.6216 55.7326C41.8616 55.6024 43.1017 55.472 44.3416 55.3417C44.8545 60.2205 45.3673 65.0992 45.88 69.978C44.6401 70.1082 43.4 70.2386 42.16 70.3689C41.9542 68.4107 41.7483 66.4523 41.5425 64.494C39.9434 64.6621 38.3443 64.8302 36.7451 64.9983C36.951 66.9566 37.1567 68.9148 37.3625 70.8731C36.1225 71.0033 34.8825 71.1337 33.6425 71.264C33.1297 66.3853 32.6169 61.5067 32.1042 56.6279ZM47.0326 55.0589C48.2793 54.9278 49.5262 54.7967 50.773 54.6657C51.0636 57.4303 51.3541 60.1949 51.6447 62.9595C53.3056 59.9898 54.9665 57.0201 56.6274 54.0503C57.6234 53.9456 58.6195 53.841 59.6156 53.7362C60.1284 58.615 60.6413 63.4937 61.154 68.3725C59.9411 68.5 58.7281 68.6275 57.5152 68.755C57.2211 65.9565 56.9269 63.1579 56.6328 60.3594C54.9754 63.363 53.3182 66.3667 51.6608 69.3703C50.6308 69.4785 49.6008 69.5867 48.5708 69.6949C48.0581 64.8163 47.5454 59.9375 47.0326 55.0589ZM66.1226 57.3685C64.8961 57.4974 63.6697 57.6263 62.4432 57.7552C62.2979 56.3729 62.675 55.2029 63.5745 54.2451C64.4256 53.3471 65.5559 52.8242 66.9653 52.676C68.334 52.5322 69.497 52.7115 70.4541 53.2137C71.5431 53.798 72.1568 54.7475 72.2948 56.062C72.4631 57.6612 71.8153 58.7979 70.3515 59.4725C72.2587 59.8885 73.3041 60.9707 73.4878 62.7191C73.6274 64.0471 73.169 65.2257 72.1125 66.2548C71.1287 67.194 69.9526 67.7355 68.5839 67.8793C67.066 68.0389 65.7778 67.7769 64.7195 67.0934C63.5877 66.363 62.9035 65.2633 62.6669 63.7947C63.9273 63.6622 65.1876 63.5298 66.448 63.3972C66.7195 64.2867 67.35 64.6794 68.3392 64.5754C68.8136 64.5257 69.1706 64.3374 69.4103 64.0107C69.6486 63.6706 69.7422 63.2565 69.6908 62.7687C69.6125 62.0234 69.1567 61.5985 68.3238 61.4942C68.0742 61.4656 67.3869 61.5105 66.2622 61.6287C66.166 60.714 66.0698 59.7992 65.9736 58.8844C66.2379 58.8566 66.5022 58.8289 66.7664 58.8012C67.2814 58.747 67.7164 58.5848 68.0718 58.3145C68.4905 57.9966 68.6749 57.6003 68.625 57.126C68.5895 56.7872 68.4158 56.504 68.1042 56.2764C67.8061 56.0474 67.4808 55.9513 67.1285 55.9885C66.3966 56.0654 66.0613 56.5253 66.1226 57.3685ZM79.7471 66.4183C78.5003 66.5493 77.2536 66.6804 76.0068 66.8115C75.494 61.9327 74.9812 57.054 74.4685 52.1752C75.7153 52.0442 76.9621 51.9132 78.2089 51.7821C78.4417 53.9978 78.6746 56.2135 78.9075 58.4293C80.0636 56.0675 81.2198 53.7058 82.3761 51.3441C83.6838 51.2066 84.9916 51.0692 86.2994 50.9318C84.9356 53.5346 83.5717 56.1374 82.208 58.7401C84.1862 61.0054 86.1644 63.2706 88.1425 65.5359C86.6857 65.6889 85.2289 65.8421 83.772 65.9952C82.2068 64.0086 80.6415 62.0219 79.0763 60.0353C79.2998 62.163 79.5235 64.2906 79.7471 66.4183ZM88.0263 50.7503C89.273 50.6192 90.5198 50.4882 91.7666 50.3571C92.0572 53.1217 92.3477 55.8863 92.6382 58.6509C94.2992 55.6812 95.9601 52.7116 97.6211 49.7418C98.6172 49.6371 99.6132 49.5323 100.6092 49.4277C101.1221 54.3064 101.6348 59.1852 102.1475 64.0638C100.9346 64.1914 99.7218 64.3189 98.5089 64.4464C98.2147 61.6479 97.9207 58.8494 97.6265 56.0508C95.9692 59.0544 94.3118 62.058 92.6545 65.0616C91.6245 65.17 90.5944 65.2782 89.5645 65.3865C89.0517 60.5078 88.539 55.629 88.0263 50.7503ZM112.9219 62.9315C110.2115 63.2163 107.5011 63.5012 104.7907 63.786C104.2779 58.9074 103.7651 54.0286 103.2523 49.15C105.9627 48.865 108.6732 48.5802 111.3836 48.2953C111.4983 49.3862 111.6129 50.4771 111.7276 51.568C110.264 51.7218 108.8003 51.8757 107.3366 52.0296C107.4158 52.7817 107.4948 53.5338 107.5739 54.2859C108.9901 54.1372 110.4063 53.9883 111.8225 53.8394C111.9386 54.9439 112.0547 56.0484 112.1707 57.1529C110.7545 57.3018 109.3383 57.4506 107.9221 57.5994C108.0097 58.4329 108.0973 59.2664 108.1849 60.0999C109.6486 59.946 111.1121 59.7922 112.5757 59.6383C112.6911 60.7361 112.8065 61.8338 112.9219 62.9315ZM54.9128 79.1873C56.1596 79.0563 57.4064 78.9253 58.6532 78.7943C59.0513 82.582 59.4495 86.3699 59.8476 90.1576C60.3286 90.1071 60.8097 90.0565 61.2908 90.0059C61.5052 92.0455 61.7196 94.0851 61.9339 96.1246C60.8227 96.2414 59.7114 96.3582 58.6002 96.475C58.5005 95.5264 58.4007 94.5777 58.3011 93.629C54.9604 93.9803 51.6199 94.3314 48.2792 94.6825C47.7665 89.8037 47.2538 84.925 46.741 80.0462C47.9877 79.9151 49.2345 79.7842 50.4813 79.6531C50.8794 83.4409 51.2775 87.2287 51.6757 91.0166C53.1529 90.8613 54.63 90.706 56.1072 90.5507C55.7091 86.7629 55.3109 82.9751 54.9128 79.1873ZM71.1579 92.2779C68.4475 92.5627 65.7371 92.8476 63.0266 93.1323C62.5138 88.2537 62.0011 83.375 61.4884 78.4963C64.1988 78.2114 66.9091 77.9265 69.6195 77.6416C69.7342 78.7325 69.8489 79.8235 69.9635 80.9144C68.4999 81.0682 67.0364 81.222 65.5727 81.3759C65.6517 82.128 65.7307 82.8802 65.8099 83.6323C67.2261 83.4835 68.6423 83.3346 70.0585 83.1859C70.1745 84.2903 70.2905 85.3948 70.4066 86.4993C68.9904 86.6481 67.5742 86.797 66.158 86.9458C66.2456 87.7792 66.3332 88.6127 66.4208 89.4462C67.8845 89.2923 69.3482 89.1385 70.8117 88.9847C70.9272 90.0824 71.0426 91.1801 71.1579 92.2779ZM71.9303 77.3986C73.1703 77.2684 74.4104 77.138 75.6504 77.0077C75.8426 78.8372 76.035 80.6667 76.2272 82.4963C77.8264 82.3282 79.4255 82.1602 81.0247 81.9921C80.8323 80.1626 80.6401 78.333 80.4478 76.5035C81.6878 76.3732 82.9278 76.2429 84.1678 76.1125C84.6805 80.9913 85.1933 85.87 85.7062 90.7488C84.4661 90.8791 83.2261 91.0094 81.986 91.1398C81.7802 89.1815 81.5744 87.2232 81.3687 85.2649C79.7695 85.4329 78.1703 85.6011 76.5712 85.7691C76.777 87.7274 76.9828 89.6856 77.1887 91.6439C75.9486 91.7742 74.7086 91.9046 73.4685 92.0349C72.9558 87.1561 72.4431 82.2774 71.9303 77.3986ZM91.4793 83.8117C91.5861 84.8281 91.6929 85.8446 91.7998 86.861C92.0031 86.8395 92.2064 86.8182 92.4096 86.7969C93.8055 86.6501 94.4551 86.1161 94.3582 85.1945C94.2414 84.0832 93.485 83.6009 92.0891 83.7476C91.8859 83.769 91.6826 83.7904 91.4793 83.8117ZM88.3971 90.4658C87.8842 85.5871 87.3715 80.7084 86.8587 75.8298C88.1055 75.6987 89.3522 75.5676 90.599 75.4366C90.7857 77.2119 90.9722 78.9872 91.1588 80.7626C91.4231 80.7347 91.6873 80.7069 91.9516 80.6791C95.5836 80.2975 97.5648 81.6787 97.8952 84.8226C98.0605 86.3948 97.6558 87.6294 96.6814 88.5264C95.8204 89.3294 94.5769 89.8164 92.9505 89.9872C91.4328 90.1468 89.9149 90.3063 88.3971 90.4658ZM103.2365 88.9063C101.9898 89.0373 100.743 89.1683 99.4961 89.2993C98.9833 84.4205 98.4706 79.5418 97.9577 74.663C99.2045 74.532 100.4514 74.401 101.6981 74.2701C102.2109 79.1488 102.7238 84.0275 103.2365 88.9063Z"></path></svg> 