<?xml version="1.0" encoding="UTF-8"?> <svg xmlns="http://www.w3.org/2000/svg" width="36" height="36" viewBox="0 0 36 36" fill="none"> <g clip-path="url(#clip0_118_2044)"> <path d="M18 33C9.7155 33 3 26.2845 3 18C3 9.7155 9.7155 3 18 3C26.2845 3 33 9.7155 33 18C33 26.2845 26.2845 33 18 33ZM18 30C21.1826 30 24.2348 28.7357 26.4853 26.4853C28.7357 24.2348 30 21.1826 30 18C30 14.8174 28.7357 11.7652 26.4853 9.51472C24.2348 7.26428 21.1826 6 18 6C14.8174 6 11.7652 7.26428 9.51472 9.51472C7.26428 11.7652 6 14.8174 6 18C6 21.1826 7.26428 24.2348 9.51472 26.4853C11.7652 28.7357 14.8174 30 18 30ZM12 19.5H24C24 21.0913 23.3679 22.6174 22.2426 23.7426C21.1174 24.8679 19.5913 25.5 18 25.5C16.4087 25.5 14.8826 24.8679 13.7574 23.7426C12.6321 22.6174 12 21.0913 12 19.5Z" fill="#333333"></path> </g> <defs> <clipPath id="clip0_118_2044"> <rect width="36" height="36" fill="white"></rect> </clipPath> </defs> </svg> 