<?xml version="1.0" encoding="UTF-8"?> <svg xmlns="http://www.w3.org/2000/svg" width="36" height="36" viewBox="0 0 36 36" fill="none"> <g clip-path="url(#clip0_118_1881)"> <path d="M9.1245 19.5C8.90767 18.21 8.97466 16.8882 9.32081 15.6267C9.66697 14.3651 10.284 13.1943 11.1288 12.1955C11.9737 11.1968 13.0261 10.3943 14.2128 9.84382C15.3995 9.29335 16.6919 9.00819 18 9.00819C19.3081 9.00819 20.6005 9.29335 21.7872 9.84382C22.9739 10.3943 24.0263 11.1968 24.8712 12.1955C25.716 13.1943 26.333 14.3651 26.6792 15.6267C27.0253 16.8882 27.0923 18.21 26.8755 19.5H23.811C24.0389 18.6136 24.061 17.6869 23.8756 16.7907C23.6903 15.8944 23.3024 15.0525 22.7415 14.3293C22.1807 13.606 21.4619 13.0207 20.6401 12.618C19.8183 12.2153 18.9152 12.0059 18 12.0059C17.0848 12.0059 16.1817 12.2153 15.3599 12.618C14.5381 13.0207 13.8193 13.606 13.2585 14.3293C12.6976 15.0525 12.3097 15.8944 12.1244 16.7907C11.939 17.6869 11.9611 18.6136 12.189 19.5H9.1245ZM3 22.5H18V25.5H3V22.5ZM21 22.5H33V25.5H21V22.5ZM24 28.5H30V31.5H24V28.5ZM6 28.5H21V31.5H6V28.5ZM16.5 1.5H19.5V6H16.5V1.5ZM5.2725 7.3935L7.3935 5.2725L10.575 8.454L8.454 10.575L5.2725 7.395V7.3935ZM28.605 5.2725L30.726 7.3935L27.5445 10.575L25.4235 8.454L28.605 5.2725ZM34.5 16.5V19.5H30V16.5H34.5ZM6 16.5V19.5H1.5V16.5H6Z" fill="#333333"></path> </g> <defs> <clipPath id="clip0_118_1881"> <rect width="36" height="36" fill="white"></rect> </clipPath> </defs> </svg> 