<?xml version="1.0" encoding="UTF-8"?> <svg xmlns="http://www.w3.org/2000/svg" width="28" height="28" viewBox="0 0 28 28" fill="none"> <rect width="28" height="28" rx="14" fill="#333333"></rect> <path d="M7.78965 13.5041C7.78965 13.5041 13.4862 11.1048 15.4618 10.2599C16.2192 9.92203 18.7875 8.84062 18.7875 8.84062C18.7875 8.84062 19.9729 8.36755 19.8742 9.51649C19.8412 9.98961 19.5778 11.6454 19.3144 13.4365C18.9192 15.971 18.4912 18.742 18.4912 18.742C18.4912 18.742 18.4253 19.5192 17.8656 19.6544C17.3058 19.7895 16.3838 19.1813 16.2192 19.0461C16.0874 18.9447 13.7496 17.424 12.8935 16.6806C12.663 16.4778 12.3995 16.0724 12.9264 15.5992C14.1118 14.4841 15.5277 13.0986 16.3838 12.22C16.7789 11.8144 17.174 10.8682 15.5277 12.0172C13.1898 13.673 10.8849 15.2275 10.8849 15.2275C10.8849 15.2275 10.358 15.5654 9.37018 15.2613C8.38232 14.9572 7.22984 14.5516 7.22984 14.5516C7.22984 14.5516 6.43962 14.0448 7.78965 13.5041Z" fill="white"></path> </svg> 