<?xml version="1.0" encoding="UTF-8"?> <svg xmlns="http://www.w3.org/2000/svg" width="28" height="28" viewBox="0 0 28 28" fill="none"> <rect width="28" height="28" rx="14" fill="#333333"></rect> <path d="M7 20.4817L8.00447 16.7468C7.19439 15.2919 6.93702 13.5941 7.27959 11.9651C7.62215 10.336 8.54168 8.88489 9.86942 7.87803C11.1972 6.87118 12.8441 6.37611 14.5079 6.48367C16.1718 6.59123 17.741 7.29421 18.9276 8.46361C20.1142 9.633 20.8386 11.1904 20.9678 12.8499C21.0971 14.5095 20.6226 16.16 19.6313 17.4984C18.64 18.8369 17.1986 19.7736 15.5713 20.1366C13.9441 20.4997 12.2404 20.2647 10.7727 19.4749L7 20.4817ZM10.9546 18.0773L11.1879 18.2155C12.251 18.8445 13.4927 19.1049 14.7194 18.9559C15.9461 18.8069 17.0891 18.2569 17.9701 17.3917C18.851 16.5265 19.4206 15.3947 19.59 14.1726C19.7594 12.9505 19.5191 11.7068 18.9065 10.6353C18.294 9.56379 17.3436 8.72466 16.2035 8.2487C15.0633 7.77273 13.7975 7.68665 12.6033 8.00388C11.409 8.32111 10.3535 9.02383 9.60103 10.0025C8.8486 10.9812 8.44159 12.1809 8.44343 13.4147C8.44243 14.4376 8.72581 15.4408 9.26203 16.3125L9.40835 16.5533L8.8468 18.6379L10.9546 18.0773Z" fill="white"></path> <path fill-rule="evenodd" clip-rule="evenodd" d="M16.6183 14.3737C16.4815 14.2635 16.3213 14.186 16.15 14.147C15.9787 14.108 15.8007 14.1086 15.6296 14.1486C15.3726 14.2552 15.2065 14.6579 15.0404 14.8593C15.0053 14.9075 14.9539 14.9414 14.8956 14.9545C14.8374 14.9676 14.7764 14.959 14.724 14.9303C13.7829 14.5624 12.9941 13.8876 12.4857 13.0155C12.4423 12.9611 12.4218 12.892 12.4284 12.8228C12.4351 12.7536 12.4684 12.6896 12.5213 12.6444C12.7065 12.4613 12.8426 12.2346 12.9168 11.9851C12.9332 11.7099 12.8701 11.4358 12.7348 11.1955C12.6303 10.8585 12.4313 10.5585 12.1614 10.3309C12.0222 10.2684 11.8679 10.2474 11.717 10.2705C11.5661 10.2936 11.4252 10.3598 11.3112 10.4612C11.1132 10.6316 10.9561 10.8443 10.8514 11.0834C10.7467 11.3226 10.6971 11.5821 10.7061 11.843C10.7067 11.9894 10.7253 12.1353 10.7615 12.2773C10.8533 12.6183 10.9945 12.9442 11.1807 13.2445C11.315 13.4746 11.4615 13.6973 11.6196 13.9117C12.1336 14.6161 12.7796 15.2141 13.5218 15.6726C13.8943 15.9056 14.2923 16.095 14.7082 16.2371C15.1402 16.4326 15.6171 16.5077 16.0883 16.4543C16.3568 16.4137 16.6112 16.3079 16.8292 16.1461C17.0471 15.9843 17.2218 15.7715 17.338 15.5265C17.4063 15.3785 17.427 15.213 17.3973 15.0527C17.3261 14.725 16.8872 14.5316 16.6183 14.3737Z" fill="white"></path> </svg> 