<?xml version="1.0" encoding="UTF-8"?> <svg xmlns="http://www.w3.org/2000/svg" width="36" height="36" viewBox="0 0 36 36" fill="none"> <g clip-path="url(#clip0_118_1914)"> <path d="M1.03516 10.4955C5.83379 6.60801 11.8244 4.49089 18.0002 4.50003C24.4277 4.50003 30.3302 6.74553 34.9652 10.4955L33.0812 12.8295C28.8155 9.37364 23.4901 7.49168 18.0002 7.50003C12.2867 7.50003 7.04116 9.49503 2.91916 12.8295L1.03516 10.4955ZM5.74666 16.3305C9.21256 13.5225 13.5395 11.9933 18.0002 12C22.6412 12 26.9042 13.6215 30.2537 16.329L28.3682 18.663C25.4354 16.2875 21.7743 14.9941 18.0002 15C14.0732 15 10.4657 16.3725 7.63216 18.663L5.74666 16.329V16.3305ZM10.4597 22.1655C12.5924 20.4374 15.2551 19.4961 18.0002 19.5C20.8562 19.5 23.4797 20.4975 25.5407 22.164L23.6552 24.498C22.0555 23.2024 20.0587 22.4968 18.0002 22.5C15.8582 22.5 13.8902 23.2485 12.3452 24.498L10.4597 22.164V22.1655ZM15.1727 28.0005C15.9722 27.3521 16.9707 26.9988 18.0002 27C19.0712 27 20.0552 27.375 20.8277 27.999L18.0002 31.5L15.1727 27.999V28.0005Z" fill="#333333"></path> </g> <defs> <clipPath id="clip0_118_1914"> <rect width="36" height="36" fill="white"></rect> </clipPath> </defs> </svg> 