<?xml version="1.0" encoding="UTF-8"?> <svg xmlns="http://www.w3.org/2000/svg" width="36" height="36" viewBox="0 0 36 36" fill="none"> <g clip-path="url(#clip0_118_2130)"> <path d="M29.907 12.0003H31.5C32.2956 12.0003 33.0587 12.3164 33.6213 12.879C34.1839 13.4416 34.5 14.2047 34.5 15.0003V21.0003C34.5 21.796 34.1839 22.559 33.6213 23.1217C33.0587 23.6843 32.2956 24.0003 31.5 24.0003H29.907C29.5413 26.9003 28.1299 29.5671 25.9376 31.5003C23.7453 33.4336 20.9229 34.5003 18 34.5003V31.5003C20.3869 31.5003 22.6761 30.5521 24.364 28.8643C26.0518 27.1765 27 24.8873 27 22.5003V13.5003C27 11.1134 26.0518 8.82421 24.364 7.13638C22.6761 5.44855 20.3869 4.50034 18 4.50034C15.6131 4.50034 13.3239 5.44855 11.636 7.13638C9.94821 8.82421 9 11.1134 9 13.5003V24.0003H4.5C3.70435 24.0003 2.94129 23.6843 2.37868 23.1217C1.81607 22.559 1.5 21.796 1.5 21.0003V15.0003C1.5 14.2047 1.81607 13.4416 2.37868 12.879C2.94129 12.3164 3.70435 12.0003 4.5 12.0003H6.093C6.45905 9.10068 7.87062 6.43425 10.0629 4.50135C12.2551 2.56846 15.0773 1.50195 18 1.50195C20.9227 1.50195 23.7449 2.56846 25.9371 4.50135C28.1294 6.43425 29.541 9.10068 29.907 12.0003V12.0003ZM4.5 15.0003V21.0003H6V15.0003H4.5ZM30 15.0003V21.0003H31.5V15.0003H30ZM11.64 23.6778L13.23 21.1338C14.6596 22.0294 16.313 22.5031 18 22.5003C19.687 22.5031 21.3404 22.0294 22.77 21.1338L24.36 23.6778C22.4539 24.8721 20.2493 25.5038 18 25.5003C15.7507 25.5038 13.5461 24.8721 11.64 23.6778Z" fill="#333333"></path> </g> <defs> <clipPath id="clip0_118_2130"> <rect width="36" height="36" fill="white"></rect> </clipPath> </defs> </svg> 