<?xml version="1.0" encoding="UTF-8"?> <svg xmlns="http://www.w3.org/2000/svg" width="36" height="36" viewBox="0 0 36 36" fill="none"> <g clip-path="url(#clip0_118_2133)"> <path d="M4.5 28.4995V8.54954C4.49991 8.24163 4.59458 7.94115 4.77115 7.68889C4.94773 7.43664 5.19766 7.24484 5.487 7.13954L19.9935 1.86554C20.1068 1.8243 20.2284 1.81099 20.348 1.82674C20.4675 1.84249 20.5815 1.88684 20.6803 1.95602C20.779 2.0252 20.8597 2.11718 20.9153 2.22415C20.971 2.33113 21 2.44995 21 2.57054V10L30.474 13.1575C30.7728 13.2571 31.0327 13.4481 31.2169 13.7036C31.401 13.9591 31.5001 14.2661 31.5 14.581V28.4995H34.5V31.4995H1.5V28.4995H4.5ZM7.5 28.4995H18V5.78204L7.5 9.60104V28.4995ZM28.5 28.4995V15.6625L21 13.162V28.4995H28.5Z" fill="#333333"></path> </g> <defs> <clipPath id="clip0_118_2133"> <rect width="36" height="36" fill="white"></rect> </clipPath> </defs> </svg> 