<?xml version="1.0" encoding="UTF-8"?> <svg xmlns="http://www.w3.org/2000/svg" width="36" height="36" viewBox="0 0 36 36" fill="none"> <g clip-path="url(#clip0_118_2038)"> <path d="M12 30V21H24V30H28.5V6H7.5V30H12ZM15 30H21V24H15V30ZM31.5 30H34.5V33H1.5V30H4.5V4.5C4.5 4.10218 4.65804 3.72064 4.93934 3.43934C5.22064 3.15804 5.60218 3 6 3H30C30.3978 3 30.7794 3.15804 31.0607 3.43934C31.342 3.72064 31.5 4.10218 31.5 4.5V30ZM16.5 12V9H19.5V12H22.5V15H19.5V18H16.5V15H13.5V12H16.5Z" fill="#333333"></path> </g> <defs> <clipPath id="clip0_118_2038"> <rect width="36" height="36" fill="white"></rect> </clipPath> </defs> </svg> 