<?xml version="1.0" encoding="UTF-8"?> <svg xmlns="http://www.w3.org/2000/svg" viewBox="0 0 146.00 146.00" data-guides="{&quot;vertical&quot;:[],&quot;horizontal&quot;:[]}"><defs></defs><path fill="#45c1f0" stroke="none" fill-opacity="1" stroke-width="1" stroke-opacity="1" id="tSvgbc1a7b11e1" title="Path 1" d="M72.0567 0.17C72.5049 -0.0857 73.055 -0.0857 73.5033 0.17C74.8961 0.9643 76.2889 1.7588 77.6816 2.5531C78.0597 2.7687 78.514 2.8045 78.9211 2.6507C80.421 2.0839 81.9208 1.5172 83.4207 0.9505C83.9036 0.7681 84.4468 0.8541 84.8497 1.1768C86.101 2.1793 87.3524 3.1818 88.6037 4.1842C88.9432 4.4563 89.3865 4.5627 89.8125 4.4745C91.3826 4.1494 92.9527 3.8242 94.5228 3.4991C95.0283 3.3945 95.5513 3.5645 95.8986 3.9462C96.9778 5.1321 98.057 6.3179 99.1361 7.5038C99.429 7.8256 99.85 8.0001 100.2847 7.9796C101.8863 7.9041 103.4879 7.8287 105.0896 7.7531C105.6051 7.7288 106.0952 7.9786 106.3786 8.4099C107.2589 9.7501 108.1393 11.0901 109.0195 12.4302C109.2585 12.7939 109.647 13.0321 110.0795 13.0798C111.6733 13.2558 113.267 13.4318 114.8608 13.6078C115.3736 13.6645 115.8187 13.9877 116.0311 14.4582C116.691 15.9195 117.3508 17.3809 118.0107 18.8421C118.1897 19.2386 118.5363 19.5346 118.956 19.6495C120.5026 20.0726 122.0491 20.4958 123.5957 20.9189C124.0935 21.0551 124.4825 21.444 124.6187 21.9419C125.0418 23.4884 125.4649 25.0349 125.888 26.5814C126.0029 27.0012 126.2989 27.3478 126.6953 27.5268C128.1567 28.1867 129.618 28.8466 131.0793 29.5064C131.5498 29.7189 131.8731 30.1638 131.9298 30.6768C132.1058 32.2705 132.2818 33.8643 132.4579 35.458C132.5055 35.8904 132.7437 36.2791 133.1074 36.5179C134.4474 37.3983 135.7876 38.2786 137.1276 39.159C137.5591 39.4423 137.8087 39.9325 137.7845 40.4479C137.7091 42.0496 137.6335 43.6513 137.5581 45.2529C137.5374 45.6875 137.7119 46.1086 138.0337 46.4014C139.2196 47.4806 140.4056 48.5597 141.5914 49.6388C141.9731 49.9861 142.1432 50.5093 142.0385 51.0148C141.7134 52.5848 141.3884 54.155 141.0632 55.7251C140.9749 56.1511 141.0813 56.5944 141.3533 56.9338C142.3558 58.1852 143.3583 59.4366 144.3608 60.6879C144.6835 61.0907 144.7696 61.634 144.5871 62.1168C144.0203 63.6167 143.4536 65.1166 142.8869 66.6166C142.7332 67.0236 142.7689 67.478 142.9846 67.8559C143.7789 69.2487 144.5733 70.6416 145.3676 72.0344C145.6234 72.4826 145.6234 73.0327 145.3676 73.4809C144.5733 74.8737 143.7789 76.2665 142.9846 77.6593C142.7689 78.0373 142.7332 78.4917 142.8869 78.8987C143.4536 80.3987 144.0203 81.8985 144.5871 83.3984C144.7696 83.8812 144.6835 84.4245 144.3608 84.8274C143.3583 86.0787 142.3558 87.3301 141.3533 88.5814C141.0813 88.9209 140.9749 89.3642 141.0632 89.7901C141.3884 91.3603 141.7134 92.9304 142.0385 94.5004C142.1432 95.0059 141.9731 95.5289 141.5914 95.8763C140.4056 96.9555 139.2196 98.0346 138.0337 99.1137C137.7119 99.4066 137.5374 99.8277 137.5581 100.2623C137.6335 101.8639 137.7091 103.4655 137.7845 105.0672C137.8087 105.5827 137.5591 106.0728 137.1276 106.3562C135.7876 107.2365 134.4474 108.1169 133.1074 108.9972C132.7437 109.2361 132.5055 109.6247 132.4579 110.0572C132.2818 111.6509 132.1058 113.2447 131.9298 114.8384C131.8731 115.3513 131.5498 115.7963 131.0793 116.0088C129.618 116.6686 128.1567 117.3285 126.6953 117.9883C126.2989 118.1673 126.0029 118.5139 125.888 118.9337C125.4649 120.4802 125.0418 122.0267 124.6187 123.5733C124.4825 124.0711 124.0935 124.4601 123.5957 124.5963C122.0491 125.0194 120.5026 125.4425 118.956 125.8656C118.5363 125.9806 118.1897 126.2765 118.0107 126.673C117.3508 128.1343 116.691 129.5956 116.0311 131.057C115.8187 131.5274 115.3736 131.8508 114.8608 131.9075C113.267 132.0834 111.6733 132.2594 110.0795 132.4354C109.647 132.4831 109.2585 132.7213 109.0195 133.0849C108.1393 134.425 107.2589 135.7651 106.3786 137.1052C106.0952 137.5366 105.6051 137.7862 105.0896 137.7621C103.4879 137.6866 101.8863 137.611 100.2847 137.5356C99.85 137.515 99.429 137.6895 99.1361 138.0113C98.057 139.1971 96.9778 140.3831 95.8986 141.5691C95.5513 141.9507 95.0283 142.1208 94.5228 142.0162C92.9527 141.6911 91.3826 141.366 89.8125 141.0408C89.3865 140.9525 88.9432 141.059 88.6037 141.331C87.3524 142.3335 86.101 143.336 84.8497 144.3385C84.4468 144.6611 83.9036 144.7473 83.4207 144.5647C81.9208 143.998 80.421 143.4312 78.9211 142.8646C78.514 142.7108 78.0597 142.7466 77.6816 142.9622C76.2889 143.7565 74.8961 144.5509 73.5033 145.3453C73.055 145.601 72.5049 145.601 72.0567 145.3453C70.6639 144.5509 69.2711 143.7565 67.8783 142.9622C67.5003 142.7466 67.046 142.7108 66.6389 142.8646C65.139 143.4312 63.6391 143.998 62.1392 144.5647C61.6563 144.7473 61.1131 144.6611 60.7103 144.3385C59.459 143.336 58.2076 142.3335 56.9562 141.331C56.6168 141.059 56.1735 140.9525 55.7474 141.0408C54.1774 141.366 52.6073 141.6911 51.0372 142.0162C50.5317 142.1208 50.0086 141.9507 49.6613 141.5691C48.5822 140.3831 47.503 139.1971 46.4238 138.0113C46.131 137.6895 45.71 137.515 45.2753 137.5356C43.6736 137.611 42.0719 137.6866 40.4703 137.7621C39.9548 137.7862 39.4646 137.5366 39.1813 137.1052C38.3009 135.7651 37.4206 134.425 36.5402 133.0849C36.3014 132.7213 35.9128 132.4831 35.4804 132.4354C33.8866 132.2594 32.2929 132.0834 30.6991 131.9075C30.1862 131.8508 29.7412 131.5274 29.5288 131.057C28.8689 129.5956 28.2091 128.1343 27.5492 126.673C27.3701 126.2765 27.0236 125.9806 26.6038 125.8656C25.0573 125.4425 23.5107 125.0194 21.9642 124.5963C21.4663 124.4601 21.0774 124.0711 20.9412 123.5733C20.5181 122.0267 20.0949 120.4802 19.6718 118.9337C19.557 118.5139 19.261 118.1673 18.8644 117.9883C17.4032 117.3285 15.9419 116.6686 14.4806 116.0088C14.0101 115.7963 13.6869 115.3513 13.6302 114.8384C13.4542 113.2447 13.2782 111.6509 13.1021 110.0572C13.0545 109.6247 12.8163 109.2361 12.4526 108.9972C11.1125 108.1169 9.7724 107.2365 8.4323 106.3562C8.0009 106.0728 7.7512 105.5827 7.7755 105.0672C7.851 103.4655 7.9265 101.8639 8.0019 100.2623C8.0225 99.8277 7.848 99.4066 7.5262 99.1137C6.3403 98.0346 5.1544 96.9555 3.9686 95.8763C3.5868 95.5289 3.4168 95.0059 3.5215 94.5004C3.8466 92.9304 4.1717 91.3603 4.4968 89.7901C4.585 89.3642 4.4786 88.9209 4.2066 88.5814C3.2042 87.3301 2.2017 86.0787 1.1992 84.8274C0.8764 84.4245 0.7905 83.8812 0.9728 83.3984C1.5396 81.8985 2.1063 80.3987 2.673 78.8987C2.8268 78.4917 2.7911 78.0373 2.5754 77.6593C1.7811 76.2665 0.9867 74.8737 0.1924 73.4809C-0.0634 73.0327 -0.0634 72.4826 0.1924 72.0344C0.9867 70.6416 1.7811 69.2487 2.5754 67.8559C2.7911 67.478 2.8268 67.0236 2.673 66.6166C2.1063 65.1166 1.5396 63.6167 0.9728 62.1168C0.7905 61.634 0.8764 61.0907 1.1992 60.6879C2.2017 59.4366 3.2042 58.1852 4.2066 56.9338C4.4786 56.5944 4.585 56.1511 4.4968 55.7251C4.1717 54.155 3.8466 52.5848 3.5215 51.0148C3.4168 50.5093 3.5868 49.9861 3.9686 49.6388C5.1544 48.5597 6.3403 47.4806 7.5262 46.4014C7.848 46.1086 8.0225 45.6875 8.0019 45.2529C7.9265 43.6513 7.851 42.0496 7.7755 40.4479C7.7512 39.9325 8.0009 39.4423 8.4323 39.159C9.7724 38.2786 11.1125 37.3983 12.4526 36.5179C12.8163 36.2791 13.0545 35.8904 13.1021 35.458C13.2782 33.8643 13.4542 32.2705 13.6302 30.6768C13.6869 30.1638 14.0101 29.7189 14.4806 29.5064C15.9419 28.8466 17.4032 28.1867 18.8644 27.5268C19.261 27.3478 19.557 27.0012 19.6718 26.5814C20.0949 25.0349 20.5181 23.4884 20.9412 21.9419C21.0774 21.444 21.4663 21.0551 21.9642 20.9189C23.5107 20.4958 25.0573 20.0726 26.6038 19.6495C27.0236 19.5346 27.3701 19.2386 27.5492 18.8421C28.2091 17.3809 28.8689 15.9195 29.5288 14.4582C29.7412 13.9877 30.1862 13.6645 30.6991 13.6078C32.2929 13.4318 33.8866 13.2558 35.4804 13.0798C35.9128 13.0321 36.3014 12.7939 36.5402 12.4302C37.4206 11.0901 38.3009 9.7501 39.1813 8.4099C39.4646 7.9786 39.9548 7.7288 40.4703 7.7531C42.0719 7.8287 43.6736 7.9041 45.2753 7.9796C45.71 8.0001 46.131 7.8256 46.4238 7.5038C47.503 6.3179 48.5822 5.1321 49.6613 3.9462C50.0086 3.5645 50.5317 3.3945 51.0372 3.4991C52.6073 3.8242 54.1774 4.1494 55.7474 4.4745C56.1735 4.5627 56.6168 4.4563 56.9562 4.1842C58.2076 3.1818 59.459 2.1793 60.7103 1.1768C61.1131 0.8541 61.6563 0.7681 62.1392 0.9505C63.6391 1.5172 65.139 2.0839 66.6389 2.6507C67.046 2.8045 67.5003 2.7687 67.8783 2.5531C69.2711 1.7588 70.6639 0.9643 72.0567 0.17Z"></path><path fill="white" stroke="none" fill-opacity="1" stroke-width="1" stroke-opacity="1" id="tSvg132ef62baac" title="Path 2" d="M32.1042 61.6281C33.3442 61.4978 34.5841 61.3674 35.8241 61.237C36.0165 63.0665 36.2088 64.8961 36.4012 66.7256C38.0003 66.5575 39.5994 66.3895 41.1985 66.2214C41.0062 64.3919 40.8139 62.5624 40.6216 60.7328C41.8616 60.6026 43.1017 60.4722 44.3417 60.3419C44.8546 65.2207 45.3674 70.0994 45.8801 74.9782C44.6402 75.1084 43.4 75.2388 42.16 75.3691C41.9542 73.4109 41.7483 71.4525 41.5425 69.4942C39.9434 69.6623 38.3443 69.8304 36.7451 69.9985C36.951 71.9568 37.1567 73.915 37.3625 75.8733C36.1225 76.0035 34.8825 76.1339 33.6425 76.2642C33.1297 71.3855 32.6169 66.5069 32.1042 61.6281ZM47.0327 60.0591C48.2794 59.928 49.5263 59.7969 50.7731 59.6659C51.0637 62.4305 51.3542 65.1951 51.6448 67.9597C53.3057 64.99 54.9666 62.0203 56.6275 59.0505C57.6235 58.9458 58.6196 58.8412 59.6157 58.7364C60.1285 63.6152 60.6414 68.4939 61.1541 73.3727C59.9412 73.5002 58.7282 73.6277 57.5153 73.7552C57.2212 70.9567 56.927 68.1581 56.6329 65.3596C54.9755 68.3632 53.3183 71.3669 51.6609 74.3705C50.6309 74.4787 49.6009 74.5869 48.5709 74.6951C48.0582 69.8165 47.5455 64.9377 47.0327 60.0591ZM66.1227 62.3687C64.8962 62.4976 63.6698 62.6265 62.4433 62.7554C62.298 61.3731 62.6751 60.2031 63.5746 59.2453C64.4257 58.3473 65.556 57.8244 66.9654 57.6762C68.3341 57.5324 69.4971 57.7117 70.4542 58.2139C71.5432 58.7982 72.1569 59.7477 72.2949 61.0622C72.4632 62.6614 71.8154 63.7981 70.3516 64.4727C72.2588 64.8887 73.3042 65.9709 73.4879 67.7193C73.6275 69.0473 73.1691 70.2259 72.1126 71.255C71.1288 72.1942 69.9527 72.7357 68.584 72.8795C67.0661 73.0391 65.7779 72.7771 64.7196 72.0936C63.5878 71.3632 62.9036 70.2635 62.667 68.7949C63.9274 68.6624 65.1877 68.53 66.4481 68.3974C66.7196 69.2869 67.3501 69.6796 68.3393 69.5756C68.8137 69.5259 69.1707 69.3376 69.4104 69.0109C69.6487 68.6708 69.7423 68.2567 69.6909 67.7689C69.6126 67.0236 69.1568 66.5987 68.3239 66.4944C68.0743 66.4658 67.387 66.5107 66.2623 66.6289C66.1661 65.7142 66.0699 64.7994 65.9737 63.8846C66.238 63.8568 66.5023 63.8291 66.7665 63.8014C67.2815 63.7472 67.7165 63.585 68.0719 63.3147C68.4906 62.9968 68.675 62.6005 68.6251 62.1262C68.5896 61.7874 68.4159 61.5042 68.1043 61.2766C67.8062 61.0476 67.4809 60.9515 67.1286 60.9887C66.3967 61.0656 66.0614 61.5255 66.1227 62.3687ZM79.7472 71.4185C78.5004 71.5495 77.2537 71.6806 76.0069 71.8117C75.4941 66.9329 74.9813 62.0542 74.4686 57.1754C75.7154 57.0444 76.9622 56.9134 78.209 56.7823C78.4418 58.998 78.6747 61.2137 78.9076 63.4295C80.0637 61.0677 81.2199 58.706 82.3762 56.3443C83.6839 56.2068 84.9917 56.0694 86.2995 55.932C84.9357 58.5348 83.5718 61.1376 82.2081 63.7403C84.1863 66.0056 86.1645 68.2708 88.1426 70.5361C86.6858 70.6891 85.229 70.8423 83.7721 70.9954C82.2069 69.0088 80.6416 67.0221 79.0764 65.0355C79.2999 67.1632 79.5236 69.2908 79.7472 71.4185ZM88.0264 55.7505C89.2731 55.6194 90.5199 55.4884 91.7667 55.3573C92.0573 58.1219 92.3478 60.8865 92.6383 63.6511C94.2993 60.6814 95.9602 57.7118 97.6212 54.742C98.6173 54.6373 99.6133 54.5325 100.6093 54.4279C101.1222 59.3066 101.6349 64.1854 102.1476 69.064C100.9347 69.1916 99.7219 69.3191 98.509 69.4466C98.2148 66.6481 97.9208 63.8496 97.6266 61.051C95.9693 64.0546 94.3119 67.0582 92.6546 70.0618C91.6246 70.1702 90.5945 70.2784 89.5646 70.3867C89.0518 65.508 88.5391 60.6292 88.0264 55.7505ZM112.922 67.9317C110.2116 68.2165 107.5012 68.5014 104.7908 68.7862C104.278 63.9076 103.7652 59.0288 103.2524 54.1502C105.9628 53.8652 108.6733 53.5804 111.3837 53.2955C111.4984 54.3864 111.613 55.4773 111.7277 56.5682C110.2641 56.722 108.8004 56.8759 107.3367 57.0298C107.4159 57.7819 107.4949 58.534 107.574 59.2861C108.9902 59.1374 110.4064 58.9885 111.8226 58.8396C111.9387 59.9441 112.0548 61.0486 112.1708 62.1531C110.7546 62.302 109.3384 62.4508 107.9222 62.5996C108.0098 63.4331 108.0974 64.2666 108.185 65.1001C109.6487 64.9462 111.1122 64.7924 112.5758 64.6385C112.6912 65.7363 112.8066 66.834 112.922 67.9317ZM54.9129 84.1875C56.1597 84.0565 57.4065 83.9255 58.6533 83.7945C59.0514 87.5822 59.4496 91.3701 59.8477 95.1578C60.3287 95.1073 60.8098 95.0567 61.2909 95.0061C61.5053 97.0457 61.7197 99.0853 61.934 101.1248C60.8228 101.2416 59.7115 101.3584 58.6003 101.4752C58.5006 100.5266 58.4008 99.5779 58.3012 98.6292C54.9605 98.9805 51.62 99.3316 48.2793 99.6827C47.7666 94.8039 47.2539 89.9252 46.7411 85.0464C47.9878 84.9153 49.2346 84.7844 50.4814 84.6533C50.8795 88.4411 51.2776 92.2289 51.6758 96.0168C53.153 95.8615 54.6301 95.7062 56.1073 95.5509C55.7092 91.7631 55.311 87.9753 54.9129 84.1875ZM71.158 97.2781C68.4476 97.5629 65.7372 97.8478 63.0267 98.1325C62.5139 93.2539 62.0012 88.3752 61.4885 83.4965C64.1989 83.2116 66.9092 82.9267 69.6196 82.6418C69.7343 83.7327 69.849 84.8237 69.9636 85.9146C68.5 86.0684 67.0365 86.2222 65.5728 86.3761C65.6518 87.1282 65.7308 87.8804 65.81 88.6325C67.2262 88.4837 68.6424 88.3348 70.0586 88.1861C70.1746 89.2905 70.2906 90.395 70.4067 91.4995C68.9905 91.6483 67.5743 91.7972 66.1581 91.946C66.2457 92.7794 66.3333 93.6129 66.4209 94.4464C67.8846 94.2925 69.3483 94.1387 70.8118 93.9849C70.9273 95.0826 71.0427 96.1803 71.158 97.2781ZM71.9304 82.3988C73.1704 82.2686 74.4105 82.1382 75.6505 82.0079C75.8427 83.8374 76.0351 85.6669 76.2273 87.4965C77.8265 87.3284 79.4256 87.1604 81.0248 86.9923C80.8324 85.1628 80.6402 83.3332 80.4479 81.5037C81.6879 81.3734 82.9279 81.2431 84.1679 81.1127C84.6806 85.9915 85.1934 90.8702 85.7063 95.749C84.4662 95.8793 83.2262 96.0096 81.9861 96.14C81.7803 94.1817 81.5745 92.2234 81.3688 90.2651C79.7696 90.4331 78.1704 90.6013 76.5713 90.7693C76.7771 92.7276 76.9829 94.6858 77.1888 96.6441C75.9487 96.7744 74.7087 96.9048 73.4686 97.0351C72.9559 92.1563 72.4432 87.2776 71.9304 82.3988ZM91.4794 88.8119C91.5862 89.8283 91.693 90.8448 91.7999 91.8612C92.0032 91.8397 92.2065 91.8184 92.4097 91.7971C93.8056 91.6503 94.4552 91.1163 94.3583 90.1947C94.2415 89.0834 93.4851 88.6011 92.0892 88.7478C91.886 88.7692 91.6827 88.7906 91.4794 88.8119ZM88.3972 95.466C87.8843 90.5873 87.3716 85.7086 86.8588 80.83C88.1056 80.6989 89.3523 80.5678 90.5991 80.4368C90.7858 82.2121 90.9723 83.9874 91.1589 85.7628C91.4232 85.7349 91.6874 85.7071 91.9517 85.6793C95.5837 85.2977 97.5649 86.6789 97.8953 89.8228C98.0606 91.395 97.6559 92.6296 96.6815 93.5266C95.8205 94.3296 94.577 94.8166 92.9506 94.9874C91.4329 95.147 89.915 95.3065 88.3972 95.466ZM103.2366 93.9065C101.9899 94.0375 100.7431 94.1685 99.4962 94.2995C98.9834 89.4207 98.4707 84.542 97.9578 79.6632C99.2046 79.5322 100.4515 79.4012 101.6982 79.2703C102.211 84.149 102.7239 89.0277 103.2366 93.9065Z"></path></svg> 